<svg width="357" height="124" viewBox="0 0 357 124" fill="none" xmlns="http://www.w3.org/2000/svg">
<path d="M80.4333 51.0205C59.4645 51.0205 41.8837 56.4264 22.0569 62.745C13.4059 65.502 7.65408 70.5648 3.22052 78.5125C-4.58344 92.5022 9.83271 103.748 20.9202 110.775C40.6721 123.293 71.4497 128.572 91.8001 115.061C102.563 107.915 105.105 96.6523 106.739 84.4961C109.695 62.5041 96.8605 52.6115 80.4333 40.8323" stroke="#565EF9" stroke-width="2"/>
<path d="M242.27 56.5554C241.69 56.6554 241.16 56.6254 240.68 56.4654C240.2 56.2854 239.81 55.9954 239.51 55.5954C239.23 55.1754 239.09 54.6454 239.09 54.0054C239.03 53.4054 239.1 52.7154 239.3 51.9354C239.5 51.1354 239.79 50.3354 240.17 49.5354C240.57 48.7354 241 48.0454 241.46 47.4654C241.86 46.9854 242.26 46.5454 242.66 46.1454C243.06 45.7454 243.42 45.4754 243.74 45.3354C244.02 45.2154 244.28 45.1454 244.52 45.1254C244.78 45.0854 244.99 45.0654 245.15 45.0654C245.47 45.1454 245.81 45.2954 246.17 45.5154C246.55 45.7154 246.74 45.9354 246.74 46.1754C246.74 46.1754 246.76 46.2054 246.8 46.2654C246.86 46.3054 246.89 46.3254 246.89 46.3254C247.01 46.3254 247.11 46.4554 247.19 46.7154C247.29 46.9754 247.35 47.2754 247.37 47.6154C247.39 47.9354 247.34 48.2054 247.22 48.4254C247.14 48.8054 247 49.1354 246.8 49.4154C246.6 49.6954 246.42 49.8354 246.26 49.8354C246.18 49.8354 246.1 49.8454 246.02 49.8654C245.96 49.8654 245.93 49.9154 245.93 50.0154C245.93 50.1154 245.87 50.1554 245.75 50.1354C245.65 50.1154 245.54 50.0554 245.42 49.9554C245.3 49.8354 245.21 49.6954 245.15 49.5354C245.15 49.4354 245.19 49.2654 245.27 49.0254C245.35 48.7854 245.43 48.4754 245.51 48.0954C245.63 47.5354 245.62 47.1754 245.48 47.0154C245.34 46.8354 245.07 46.8254 244.67 46.9854C244.17 47.2654 243.69 47.6554 243.23 48.1554C242.79 48.6554 242.38 49.3054 242 50.1054C241.62 50.8854 241.28 51.8654 240.98 53.0454C240.86 53.5054 240.81 53.9054 240.83 54.2454C240.87 54.5854 240.92 54.7654 240.98 54.7854C241.26 54.8654 241.64 54.8854 242.12 54.8454C242.6 54.7854 242.95 54.6954 243.17 54.5754C243.49 54.4154 243.85 54.2054 244.25 53.9454C244.65 53.6654 245 53.4154 245.3 53.1954C245.4 53.1354 245.52 53.0354 245.66 52.8954C245.8 52.7554 245.95 52.6454 246.11 52.5654C246.27 52.3254 246.41 52.1854 246.53 52.1454C246.65 52.1054 246.83 52.0854 247.07 52.0854C247.23 52.1254 247.38 52.1854 247.52 52.2654C247.66 52.3454 247.75 52.4254 247.79 52.5054C247.85 52.5854 247.82 52.6554 247.7 52.7154C247.62 52.7154 247.57 52.7454 247.55 52.8054C247.55 52.8454 247.55 52.8654 247.55 52.8654C247.59 52.9454 247.5 53.1154 247.28 53.3754C247.08 53.6154 246.82 53.8854 246.5 54.1854C246.18 54.4854 245.87 54.7454 245.57 54.9654C245.29 55.1654 245.09 55.2654 244.97 55.2654C244.77 55.2654 244.67 55.3254 244.67 55.4454C244.67 55.4854 244.52 55.5854 244.22 55.7454C243.94 55.9054 243.61 56.0654 243.23 56.2254C242.87 56.3854 242.55 56.4954 242.27 56.5554ZM258.7 56.1954C258.62 56.1554 258.5 56.0854 258.34 55.9854C258.2 55.8654 258.05 55.7354 257.89 55.5954C257.75 55.4354 257.65 55.2954 257.59 55.1754C257.53 55.0754 257.53 54.8954 257.59 54.6354C257.67 54.3754 257.75 54.2454 257.83 54.2454C257.89 54.2854 257.99 54.2154 258.13 54.0354C258.27 53.8554 258.41 53.6654 258.55 53.4654C258.69 53.2454 258.76 53.1154 258.76 53.0754C258.78 52.9954 258.83 52.9354 258.91 52.8954C259.01 52.8354 259.1 52.7754 259.18 52.7154C259.28 52.5554 259.41 52.3954 259.57 52.2354C259.75 52.0554 259.89 51.9054 259.99 51.7854C260.15 51.5854 260.44 51.2854 260.86 50.8854C261.28 50.4854 261.69 50.0754 262.09 49.6554C262.51 49.1954 262.88 48.7954 263.2 48.4554C263.52 48.0954 263.69 47.8454 263.71 47.7054C263.71 47.7054 263.74 47.6754 263.8 47.6154C263.88 47.5354 263.97 47.4654 264.07 47.4054C264.17 47.3454 264.3 47.2454 264.46 47.1054C264.64 46.9654 264.79 46.8354 264.91 46.7154C264.95 46.5554 265.06 46.3354 265.24 46.0554C265.44 45.7554 265.64 45.5054 265.84 45.3054C266 45.0654 266.15 44.8054 266.29 44.5254C266.43 44.2254 266.52 44.0054 266.56 43.8654C266.62 43.6454 266.62 43.5154 266.56 43.4754C266.5 43.4154 266.25 43.3154 265.81 43.1754C265.33 43.0154 264.8 42.9554 264.22 42.9954C263.66 43.0154 263.03 43.2754 262.33 43.7754C262.05 43.8354 261.79 43.9154 261.55 44.0154C261.33 44.1154 261.14 44.1554 260.98 44.1354C260.9 44.0954 260.81 44.0054 260.71 43.8654C260.61 43.7254 260.5 43.5954 260.38 43.4754L260.08 42.8454L261.01 42.3354C261.83 41.8154 262.57 41.4554 263.23 41.2554C263.91 41.0554 264.53 41.0454 265.09 41.2254C265.31 41.2254 265.51 41.2554 265.69 41.3154C265.87 41.3554 265.96 41.3754 265.96 41.3754C266.12 41.3554 266.32 41.4454 266.56 41.6454C266.8 41.8254 267.03 42.0554 267.25 42.3354C267.49 42.6154 267.67 42.8954 267.79 43.1754C268.11 43.6554 268.21 44.1654 268.09 44.7054C267.99 45.2254 267.69 45.8554 267.19 46.5954C267.09 46.7154 266.87 46.9654 266.53 47.3454C266.19 47.7254 265.8 48.1554 265.36 48.6354C264.94 49.0954 264.55 49.5054 264.19 49.8654C263.85 50.2254 263.63 50.4554 263.53 50.5554C263.39 50.6154 263.15 50.8254 262.81 51.1854C262.49 51.5254 262.14 51.9054 261.76 52.3254C261.4 52.7254 261.09 53.0854 260.83 53.4054C260.59 53.7054 260.49 53.8554 260.53 53.8554C260.51 53.9354 260.54 53.9754 260.62 53.9754C260.7 53.9554 260.83 53.9154 261.01 53.8554C261.31 53.7554 261.7 53.6554 262.18 53.5554C262.68 53.4554 263.19 53.3754 263.71 53.3154C264.23 53.2354 264.68 53.1854 265.06 53.1654C265.46 53.1454 265.69 53.1654 265.75 53.2254C265.79 53.3254 265.82 53.3654 265.84 53.3454C265.88 53.3054 265.9 53.2854 265.9 53.2854C265.94 53.1454 266.19 53.1054 266.65 53.1654C267.13 53.2254 267.56 53.3154 267.94 53.4354C268.16 53.4954 268.33 53.5454 268.45 53.5854C268.59 53.6254 268.66 53.6854 268.66 53.7654C268.66 53.7654 268.68 53.8154 268.72 53.9154C268.78 53.9954 268.87 54.1054 268.99 54.2454C269.31 54.5054 269.35 54.6754 269.11 54.7554C268.87 54.8354 268.35 54.8054 267.55 54.6654C267.03 54.6654 266.6 54.6954 266.26 54.7554C266.18 54.7954 266.01 54.8154 265.75 54.8154C265.49 54.8154 265.24 54.8254 265 54.8454C264.64 54.8054 264.28 54.8254 263.92 54.9054C263.56 54.9654 263.13 55.0754 262.63 55.2354C262.45 55.2954 262.17 55.3854 261.79 55.5054C261.41 55.6254 261 55.7454 260.56 55.8654C260.12 55.9854 259.72 56.0754 259.36 56.1354C259.02 56.1954 258.8 56.2154 258.7 56.1954ZM275.836 56.2554C275.696 56.2554 275.476 56.1954 275.176 56.0754C274.896 55.9354 274.596 55.7754 274.276 55.5954C273.956 55.3954 273.696 55.2054 273.496 55.0254C273.056 54.6054 272.686 54.0954 272.386 53.4954C272.086 52.8954 271.876 52.2554 271.756 51.5754C271.636 50.8754 271.626 50.2054 271.726 49.5654C271.946 48.2854 272.426 47.0254 273.166 45.7854C273.906 44.5254 274.756 43.4854 275.716 42.6654C276.236 42.2054 276.706 41.8554 277.126 41.6154C277.546 41.3554 278.056 41.1554 278.656 41.0154C278.876 40.9554 279.116 40.9254 279.376 40.9254C279.636 40.9054 279.836 40.8954 279.976 40.8954C280.376 40.8954 280.776 40.9754 281.176 41.1354C281.576 41.2954 281.916 41.4954 282.196 41.7354C282.476 41.9554 282.616 42.1654 282.616 42.3654C282.616 42.5054 282.606 42.6154 282.586 42.6954C282.566 42.7554 282.476 42.7454 282.316 42.6654H282.016L282.316 43.5354C282.396 43.6954 282.466 43.9154 282.526 44.1954C282.586 44.4554 282.616 44.6954 282.616 44.9154C282.616 45.0954 282.586 45.3854 282.526 45.7854C282.466 46.1654 282.386 46.5754 282.286 47.0154C282.186 47.4554 282.086 47.8654 281.986 48.2454C281.886 48.6254 281.796 48.9054 281.716 49.0854C281.656 49.2054 281.616 49.3254 281.596 49.4454C281.596 49.5454 281.596 49.6354 281.596 49.7154C281.516 49.8554 281.386 50.1254 281.206 50.5254C281.046 50.9254 280.926 51.2054 280.846 51.3654C280.766 51.4454 280.696 51.5154 280.636 51.5754C280.596 51.6354 280.616 51.7054 280.696 51.7854C280.696 51.8254 280.646 51.9554 280.546 52.1754C280.446 52.3754 280.336 52.5654 280.216 52.7454C280.116 52.9254 280.036 53.0154 279.976 53.0154C279.976 53.0154 279.946 53.0254 279.886 53.0454C279.846 53.0454 279.826 53.0754 279.826 53.1354C279.826 53.2154 279.696 53.4254 279.436 53.7654C279.176 54.0854 278.866 54.4254 278.506 54.7854C278.306 54.9854 278.026 55.2054 277.666 55.4454C277.326 55.6654 276.986 55.8554 276.646 56.0154C276.306 56.1754 276.036 56.2554 275.836 56.2554ZM275.746 54.3654C275.966 54.3654 276.176 54.3354 276.376 54.2754C276.576 54.1954 276.746 54.0854 276.886 53.9454C277.246 53.7054 277.666 53.3154 278.146 52.7754C278.626 52.2154 278.976 51.6754 279.196 51.1554C279.416 50.8554 279.586 50.5454 279.706 50.2254C279.846 49.8854 280.056 49.3154 280.336 48.5154C280.496 48.2954 280.606 48.0254 280.666 47.7054C280.726 47.3854 280.756 47.1154 280.756 46.8954C280.756 46.6754 280.756 46.3754 280.756 45.9954C280.776 45.6154 280.826 45.2954 280.906 45.0354C280.906 44.5154 280.896 44.1754 280.876 44.0154C280.856 43.8354 280.776 43.6654 280.636 43.5054C280.556 43.4454 280.446 43.3854 280.306 43.3254C280.186 43.2654 280.056 43.2354 279.916 43.2354C279.776 43.2354 279.516 43.3154 279.136 43.4754C278.756 43.6154 278.486 43.7354 278.326 43.8354C278.186 43.9154 278.026 43.9254 277.846 43.8654C277.686 43.8054 277.606 43.7254 277.606 43.6254C277.606 43.3454 277.426 43.3254 277.066 43.5654C276.706 43.7854 276.306 44.1654 275.866 44.7054C275.506 45.0654 275.196 45.4354 274.936 45.8154C274.696 46.1754 274.576 46.3954 274.576 46.4754C274.576 46.5554 274.546 46.6554 274.486 46.7754C274.426 46.8954 274.366 47.0354 274.306 47.1954C274.206 47.3354 274.086 47.5654 273.946 47.8854C273.806 48.2054 273.666 48.5254 273.526 48.8454C273.406 49.1454 273.326 49.3754 273.286 49.5354C273.286 49.6154 273.286 49.8354 273.286 50.1954C273.286 50.5354 273.286 50.8554 273.286 51.1554C273.286 51.4954 273.296 51.7854 273.316 52.0254C273.356 52.2654 273.406 52.4754 273.466 52.6554C273.526 52.8154 273.606 52.9954 273.706 53.1954C273.786 53.3354 273.906 53.5054 274.066 53.7054C274.246 53.8854 274.366 54.0154 274.426 54.0954C274.646 54.2954 274.826 54.4154 274.966 54.4554C275.106 54.4754 275.366 54.4454 275.746 54.3654ZM285.711 56.1954C285.631 56.1554 285.511 56.0854 285.351 55.9854C285.211 55.8654 285.061 55.7354 284.901 55.5954C284.761 55.4354 284.661 55.2954 284.601 55.1754C284.541 55.0754 284.541 54.8954 284.601 54.6354C284.681 54.3754 284.761 54.2454 284.841 54.2454C284.901 54.2854 285.001 54.2154 285.141 54.0354C285.281 53.8554 285.421 53.6654 285.561 53.4654C285.701 53.2454 285.771 53.1154 285.771 53.0754C285.791 52.9954 285.841 52.9354 285.921 52.8954C286.021 52.8354 286.111 52.7754 286.191 52.7154C286.291 52.5554 286.421 52.3954 286.581 52.2354C286.761 52.0554 286.901 51.9054 287.001 51.7854C287.161 51.5854 287.451 51.2854 287.871 50.8854C288.291 50.4854 288.701 50.0754 289.101 49.6554C289.521 49.1954 289.891 48.7954 290.211 48.4554C290.531 48.0954 290.701 47.8454 290.721 47.7054C290.721 47.7054 290.751 47.6754 290.811 47.6154C290.891 47.5354 290.981 47.4654 291.081 47.4054C291.181 47.3454 291.311 47.2454 291.471 47.1054C291.651 46.9654 291.801 46.8354 291.921 46.7154C291.961 46.5554 292.071 46.3354 292.251 46.0554C292.451 45.7554 292.651 45.5054 292.851 45.3054C293.011 45.0654 293.161 44.8054 293.301 44.5254C293.441 44.2254 293.531 44.0054 293.571 43.8654C293.631 43.6454 293.631 43.5154 293.571 43.4754C293.511 43.4154 293.261 43.3154 292.821 43.1754C292.341 43.0154 291.811 42.9554 291.231 42.9954C290.671 43.0154 290.041 43.2754 289.341 43.7754C289.061 43.8354 288.801 43.9154 288.561 44.0154C288.341 44.1154 288.151 44.1554 287.991 44.1354C287.911 44.0954 287.821 44.0054 287.721 43.8654C287.621 43.7254 287.511 43.5954 287.391 43.4754L287.091 42.8454L288.021 42.3354C288.841 41.8154 289.581 41.4554 290.241 41.2554C290.921 41.0554 291.541 41.0454 292.101 41.2254C292.321 41.2254 292.521 41.2554 292.701 41.3154C292.881 41.3554 292.971 41.3754 292.971 41.3754C293.131 41.3554 293.331 41.4454 293.571 41.6454C293.811 41.8254 294.041 42.0554 294.261 42.3354C294.501 42.6154 294.681 42.8954 294.801 43.1754C295.121 43.6554 295.221 44.1654 295.101 44.7054C295.001 45.2254 294.701 45.8554 294.201 46.5954C294.101 46.7154 293.881 46.9654 293.541 47.3454C293.201 47.7254 292.811 48.1554 292.371 48.6354C291.951 49.0954 291.561 49.5054 291.201 49.8654C290.861 50.2254 290.641 50.4554 290.541 50.5554C290.401 50.6154 290.161 50.8254 289.821 51.1854C289.501 51.5254 289.151 51.9054 288.771 52.3254C288.411 52.7254 288.101 53.0854 287.841 53.4054C287.601 53.7054 287.501 53.8554 287.541 53.8554C287.521 53.9354 287.551 53.9754 287.631 53.9754C287.711 53.9554 287.841 53.9154 288.021 53.8554C288.321 53.7554 288.711 53.6554 289.191 53.5554C289.691 53.4554 290.201 53.3754 290.721 53.3154C291.241 53.2354 291.691 53.1854 292.071 53.1654C292.471 53.1454 292.701 53.1654 292.761 53.2254C292.801 53.3254 292.831 53.3654 292.851 53.3454C292.891 53.3054 292.911 53.2854 292.911 53.2854C292.951 53.1454 293.201 53.1054 293.661 53.1654C294.141 53.2254 294.571 53.3154 294.951 53.4354C295.171 53.4954 295.341 53.5454 295.461 53.5854C295.601 53.6254 295.671 53.6854 295.671 53.7654C295.671 53.7654 295.691 53.8154 295.731 53.9154C295.791 53.9954 295.881 54.1054 296.001 54.2454C296.321 54.5054 296.361 54.6754 296.121 54.7554C295.881 54.8354 295.361 54.8054 294.561 54.6654C294.041 54.6654 293.611 54.6954 293.271 54.7554C293.191 54.7954 293.021 54.8154 292.761 54.8154C292.501 54.8154 292.251 54.8254 292.011 54.8454C291.651 54.8054 291.291 54.8254 290.931 54.9054C290.571 54.9654 290.141 55.0754 289.641 55.2354C289.461 55.2954 289.181 55.3854 288.801 55.5054C288.421 55.6254 288.011 55.7454 287.571 55.8654C287.131 55.9854 286.731 56.0754 286.371 56.1354C286.031 56.1954 285.811 56.2154 285.711 56.1954ZM302.847 56.2554C302.707 56.2554 302.487 56.1954 302.187 56.0754C301.907 55.9354 301.607 55.7754 301.287 55.5954C300.967 55.3954 300.707 55.2054 300.507 55.0254C300.067 54.6054 299.697 54.0954 299.397 53.4954C299.097 52.8954 298.887 52.2554 298.767 51.5754C298.647 50.8754 298.637 50.2054 298.737 49.5654C298.957 48.2854 299.437 47.0254 300.177 45.7854C300.917 44.5254 301.767 43.4854 302.727 42.6654C303.247 42.2054 303.717 41.8554 304.137 41.6154C304.557 41.3554 305.067 41.1554 305.667 41.0154C305.887 40.9554 306.127 40.9254 306.387 40.9254C306.647 40.9054 306.847 40.8954 306.987 40.8954C307.387 40.8954 307.787 40.9754 308.187 41.1354C308.587 41.2954 308.927 41.4954 309.207 41.7354C309.487 41.9554 309.627 42.1654 309.627 42.3654C309.627 42.5054 309.617 42.6154 309.597 42.6954C309.577 42.7554 309.487 42.7454 309.327 42.6654H309.027L309.327 43.5354C309.407 43.6954 309.477 43.9154 309.537 44.1954C309.597 44.4554 309.627 44.6954 309.627 44.9154C309.627 45.0954 309.597 45.3854 309.537 45.7854C309.477 46.1654 309.397 46.5754 309.297 47.0154C309.197 47.4554 309.097 47.8654 308.997 48.2454C308.897 48.6254 308.807 48.9054 308.727 49.0854C308.667 49.2054 308.627 49.3254 308.607 49.4454C308.607 49.5454 308.607 49.6354 308.607 49.7154C308.527 49.8554 308.397 50.1254 308.217 50.5254C308.057 50.9254 307.937 51.2054 307.857 51.3654C307.777 51.4454 307.707 51.5154 307.647 51.5754C307.607 51.6354 307.627 51.7054 307.707 51.7854C307.707 51.8254 307.657 51.9554 307.557 52.1754C307.457 52.3754 307.347 52.5654 307.227 52.7454C307.127 52.9254 307.047 53.0154 306.987 53.0154C306.987 53.0154 306.957 53.0254 306.897 53.0454C306.857 53.0454 306.837 53.0754 306.837 53.1354C306.837 53.2154 306.707 53.4254 306.447 53.7654C306.187 54.0854 305.877 54.4254 305.517 54.7854C305.317 54.9854 305.037 55.2054 304.677 55.4454C304.337 55.6654 303.997 55.8554 303.657 56.0154C303.317 56.1754 303.047 56.2554 302.847 56.2554ZM302.757 54.3654C302.977 54.3654 303.187 54.3354 303.387 54.2754C303.587 54.1954 303.757 54.0854 303.897 53.9454C304.257 53.7054 304.677 53.3154 305.157 52.7754C305.637 52.2154 305.987 51.6754 306.207 51.1554C306.427 50.8554 306.597 50.5454 306.717 50.2254C306.857 49.8854 307.067 49.3154 307.347 48.5154C307.507 48.2954 307.617 48.0254 307.677 47.7054C307.737 47.3854 307.767 47.1154 307.767 46.8954C307.767 46.6754 307.767 46.3754 307.767 45.9954C307.787 45.6154 307.837 45.2954 307.917 45.0354C307.917 44.5154 307.907 44.1754 307.887 44.0154C307.867 43.8354 307.787 43.6654 307.647 43.5054C307.567 43.4454 307.457 43.3854 307.317 43.3254C307.197 43.2654 307.067 43.2354 306.927 43.2354C306.787 43.2354 306.527 43.3154 306.147 43.4754C305.767 43.6154 305.497 43.7354 305.337 43.8354C305.197 43.9154 305.037 43.9254 304.857 43.8654C304.697 43.8054 304.617 43.7254 304.617 43.6254C304.617 43.3454 304.437 43.3254 304.077 43.5654C303.717 43.7854 303.317 44.1654 302.877 44.7054C302.517 45.0654 302.207 45.4354 301.947 45.8154C301.707 46.1754 301.587 46.3954 301.587 46.4754C301.587 46.5554 301.557 46.6554 301.497 46.7754C301.437 46.8954 301.377 47.0354 301.317 47.1954C301.217 47.3354 301.097 47.5654 300.957 47.8854C300.817 48.2054 300.677 48.5254 300.537 48.8454C300.417 49.1454 300.337 49.3754 300.297 49.5354C300.297 49.6154 300.297 49.8354 300.297 50.1954C300.297 50.5354 300.297 50.8554 300.297 51.1554C300.297 51.4954 300.307 51.7854 300.327 52.0254C300.367 52.2654 300.417 52.4754 300.477 52.6554C300.537 52.8154 300.617 52.9954 300.717 53.1954C300.797 53.3354 300.917 53.5054 301.077 53.7054C301.257 53.8854 301.377 54.0154 301.437 54.0954C301.657 54.2954 301.837 54.4154 301.977 54.4554C302.117 54.4754 302.377 54.4454 302.757 54.3654ZM318.369 56.8254C318.309 56.7454 318.249 56.6854 318.189 56.6454C318.129 56.5854 318.059 56.5254 317.979 56.4654C317.919 56.3854 317.819 56.2854 317.679 56.1654C317.659 55.9254 317.689 55.5954 317.769 55.1754C317.869 54.7554 317.979 54.3354 318.099 53.9154C318.219 53.4954 318.319 53.1854 318.399 52.9854C318.399 52.9854 318.449 52.8154 318.549 52.4754C318.669 52.1354 318.809 51.7254 318.969 51.2454C319.129 50.7454 319.289 50.2554 319.449 49.7754C319.629 49.2754 319.769 48.8654 319.869 48.5454C319.989 48.2054 320.049 48.0354 320.049 48.0354C320.089 47.9554 320.109 47.8754 320.109 47.7954C320.109 47.6954 320.109 47.5754 320.109 47.4354C320.049 47.0754 320.079 46.8054 320.199 46.6254C320.339 46.4454 320.449 46.2554 320.529 46.0554C320.749 46.0754 320.899 46.0754 320.979 46.0554C321.079 46.0354 321.189 46.0554 321.309 46.1154C321.449 46.1354 321.719 46.1154 322.119 46.0554C322.519 45.9954 322.919 45.9154 323.319 45.8154C323.739 45.7154 324.019 45.6354 324.159 45.5754C324.439 45.5754 324.709 45.5654 324.969 45.5454C325.249 45.5254 325.519 45.5354 325.779 45.5754C326.119 45.5754 326.419 45.6954 326.679 45.9354C326.939 46.1754 327.119 46.3654 327.219 46.5054C327.179 46.5854 327.129 46.6654 327.069 46.7454C327.029 46.8054 326.989 46.8654 326.949 46.9254C326.909 46.9854 326.859 47.0454 326.799 47.1054C326.679 47.1054 326.429 47.1054 326.049 47.1054C325.669 47.1054 325.259 47.1254 324.819 47.1654C324.399 47.2054 324.049 47.2754 323.769 47.3754C323.509 47.4554 323.229 47.5054 322.929 47.5254C322.649 47.5254 322.389 47.5754 322.149 47.6754C322.049 47.7754 321.949 47.9754 321.849 48.2754C321.749 48.5754 321.659 48.8854 321.579 49.2054C321.499 49.5254 321.429 49.7654 321.369 49.9254C321.369 49.9054 321.309 50.0454 321.189 50.3454C321.089 50.6454 320.969 50.9854 320.829 51.3654C320.709 51.7454 320.609 52.0554 320.529 52.2954C320.449 52.4154 320.349 52.6454 320.229 52.9854C320.109 53.3254 319.999 53.6654 319.899 54.0054C319.799 54.3454 319.729 54.5954 319.689 54.7554C319.609 55.1154 319.509 55.4754 319.389 55.8354C319.269 56.1754 319.119 56.5154 318.939 56.8554C318.859 56.8554 318.769 56.8554 318.669 56.8554C318.569 56.8354 318.469 56.8254 318.369 56.8254ZM328.111 56.4354C327.851 56.4354 327.641 56.3854 327.481 56.2854C327.341 56.1854 327.161 56.0454 326.941 55.8654C326.561 55.4654 326.291 55.0854 326.131 54.7254C325.971 54.3454 325.921 53.9854 325.981 53.6454C326.041 53.4854 326.061 53.3354 326.041 53.1954C326.041 53.0354 326.041 52.9554 326.041 52.9554C325.941 52.8554 325.911 52.7954 325.951 52.7754C325.991 52.7354 326.031 52.6754 326.071 52.5954C326.191 52.5954 326.231 52.4854 326.191 52.2654C326.151 52.1054 326.231 51.7554 326.431 51.2154C326.631 50.6754 326.881 50.1654 327.181 49.6854C327.301 49.4854 327.481 49.2254 327.721 48.9054C327.961 48.5654 328.221 48.2354 328.501 47.9154C328.801 47.5754 329.071 47.3054 329.311 47.1054C329.811 46.6854 330.251 46.3754 330.631 46.1754C331.011 45.9754 331.421 45.8254 331.861 45.7254C332.301 45.6254 332.601 45.5754 332.761 45.5754C332.941 45.5754 333.181 45.7354 333.481 46.0554C333.941 46.2554 334.271 46.4954 334.471 46.7754C334.691 47.0554 334.831 47.4654 334.891 48.0054C334.951 48.6054 334.901 49.2954 334.741 50.0754C334.601 50.8354 334.131 51.7854 333.331 52.9254C332.831 53.6454 332.371 54.1854 331.951 54.5454C331.531 54.8854 331.031 55.2254 330.451 55.5654C330.031 55.8454 329.651 56.0554 329.311 56.1954C328.971 56.3154 328.571 56.3954 328.111 56.4354ZM330.991 53.2554C331.471 52.7154 331.851 52.2054 332.131 51.7254C332.431 51.2454 332.711 50.6354 332.971 49.8954C333.051 49.6754 333.101 49.4054 333.121 49.0854C333.141 48.7454 333.131 48.4354 333.091 48.1554C333.071 47.8554 333.001 47.6854 332.881 47.6454C332.641 47.5054 332.351 47.4654 332.011 47.5254C331.671 47.5654 331.301 47.7554 330.901 48.0954C330.281 48.6154 329.741 49.2654 329.281 50.0454C328.821 50.8054 328.371 51.6754 327.931 52.6554C327.631 53.3754 327.561 53.9554 327.721 54.3954C327.901 54.8154 328.271 54.9654 328.831 54.8454C329.411 54.7054 330.131 54.1754 330.991 53.2554ZM336.677 54.6054C336.657 54.5054 336.637 54.3054 336.617 54.0054C336.597 53.6854 336.537 53.4854 336.437 53.4054C336.497 52.9454 336.547 52.5254 336.587 52.1454C336.627 51.7654 336.707 51.3954 336.827 51.0354C336.887 50.8354 336.987 50.5754 337.127 50.2554C337.287 49.9354 337.457 49.6254 337.637 49.3254C337.817 49.0054 337.977 48.7854 338.117 48.6654C338.257 48.5454 338.377 48.4054 338.477 48.2454C338.597 48.0854 338.727 47.9654 338.867 47.8854C338.987 47.7854 339.057 47.6754 339.077 47.5554C339.117 47.4354 339.197 47.3454 339.317 47.2854C339.617 47.0854 339.857 46.9054 340.037 46.7454C340.217 46.5854 340.407 46.4454 340.607 46.3254C340.827 46.2054 341.117 46.0954 341.477 45.9954C341.877 45.8754 342.167 45.7954 342.347 45.7554C342.547 45.6954 342.737 45.6754 342.917 45.6954C343.097 45.7154 343.367 45.7754 343.727 45.8754C343.727 45.7554 343.717 45.6154 343.697 45.4554C343.677 45.2754 343.667 45.0854 343.667 44.8854C343.707 44.6054 343.697 44.3354 343.637 44.0754C343.597 43.7954 343.557 43.5954 343.517 43.4754C343.397 43.3354 343.327 43.1154 343.307 42.8154C343.287 42.4954 343.197 42.2454 343.037 42.0654C343.097 41.6854 342.957 41.3254 342.617 40.9854C342.297 40.6254 341.907 40.3454 341.447 40.1454C340.987 39.9254 340.557 39.8454 340.157 39.9054C339.937 39.9254 339.707 39.9554 339.467 39.9954C339.227 40.0354 339.007 40.1354 338.807 40.2954C338.547 40.3154 338.337 40.3254 338.177 40.3254C338.017 40.3254 337.867 40.2754 337.727 40.1754C337.507 39.8554 337.357 39.6254 337.277 39.4854C337.217 39.3454 337.227 39.2354 337.307 39.1554C337.387 39.0554 337.527 38.9654 337.727 38.8854C337.947 38.7854 338.217 38.6254 338.537 38.4054C338.757 38.4854 338.917 38.4754 339.017 38.3754C339.117 38.2754 339.277 38.2654 339.497 38.3454C339.657 38.2454 339.917 38.2154 340.277 38.2554C340.637 38.2954 340.857 38.3354 340.937 38.3754C340.997 38.4154 341.057 38.4454 341.117 38.4654C341.177 38.4654 341.237 38.4754 341.297 38.4954C341.997 38.6354 342.607 38.9154 343.127 39.3354C343.667 39.7554 344.097 40.2954 344.417 40.9554C344.537 41.2154 344.657 41.4754 344.777 41.7354C344.897 41.9954 345.017 42.2454 345.137 42.4854C345.177 42.6054 345.217 42.8554 345.257 43.2354C345.317 43.5954 345.367 43.9454 345.407 44.2854C345.467 44.6054 345.497 44.7954 345.497 44.8554C345.537 45.0554 345.557 45.2454 345.557 45.4254C345.557 45.6054 345.537 45.7954 345.497 45.9954C345.257 47.5754 344.897 49.0254 344.417 50.3454C343.937 51.6654 343.287 53.0054 342.467 54.3654C342.307 54.6254 342.087 54.8854 341.807 55.1454C341.527 55.4054 341.257 55.6454 340.997 55.8654C340.677 56.1454 340.327 56.3454 339.947 56.4654C339.567 56.5654 339.147 56.6254 338.687 56.6454C338.127 56.2054 337.717 55.8854 337.457 55.6854C337.197 55.4854 337.027 55.3154 336.947 55.1754C336.867 55.0354 336.777 54.8454 336.677 54.6054ZM338.987 55.1754C339.107 55.0754 339.237 55.0154 339.377 54.9954C339.537 54.9554 339.657 54.8454 339.737 54.6654C339.997 54.4654 340.287 54.1454 340.607 53.7054C340.947 53.2654 341.267 52.7954 341.567 52.2954C341.867 51.7754 342.097 51.3254 342.257 50.9454C342.337 50.7254 342.407 50.5154 342.467 50.3154C342.547 50.0954 342.647 49.8954 342.767 49.7154C342.967 49.3354 343.127 48.8854 343.247 48.3654C343.367 47.8254 343.357 47.4154 343.217 47.1354C342.197 47.4754 341.357 47.9354 340.697 48.5154C340.037 49.0754 339.437 49.8754 338.897 50.9154C338.837 51.3354 338.717 51.7354 338.537 52.1154C338.377 52.4754 338.277 52.8654 338.237 53.2854C338.137 53.4854 338.087 53.7054 338.087 53.9454C338.107 54.1654 338.157 54.4254 338.237 54.7254C338.497 54.9254 338.637 55.0354 338.657 55.0554C338.697 55.0554 338.807 55.0954 338.987 55.1754ZM348.718 56.0154C348.558 56.0554 348.348 56.0754 348.088 56.0754C347.828 56.0554 347.598 56.0254 347.398 55.9854C347.218 55.9254 347.128 55.8654 347.128 55.8054C347.128 55.7054 347.078 55.6554 346.978 55.6554C346.978 55.6554 346.928 55.6154 346.828 55.5354C346.748 55.4554 346.618 55.3754 346.438 55.2954C346.258 55.0154 346.168 54.7154 346.168 54.3954C346.168 54.0554 346.258 53.5254 346.438 52.8054C346.498 52.3054 346.688 51.7254 347.008 51.0654C347.348 50.3854 347.758 49.6954 348.238 48.9954C348.718 48.2954 349.218 47.6654 349.738 47.1054C350.278 46.5454 350.768 46.1354 351.208 45.8754C351.488 45.5954 351.828 45.4454 352.228 45.4254C352.628 45.4054 353.008 45.4954 353.368 45.6954C353.568 45.7954 353.768 45.9554 353.968 46.1754C354.168 46.3954 354.358 46.6354 354.538 46.8954C354.718 47.1554 354.868 47.4154 354.988 47.6754C355.048 47.8954 355.078 48.0954 355.078 48.2754C355.098 48.4354 355.098 48.6354 355.078 48.8754C355.078 49.1154 355.048 49.4754 354.988 49.9554C354.888 50.3154 354.798 50.7554 354.718 51.2754C354.658 51.7954 354.628 52.2454 354.628 52.6254C354.588 53.0054 354.628 53.2754 354.748 53.4354C354.888 53.5954 355.088 53.6054 355.348 53.4654C355.588 53.3454 355.818 53.2954 356.038 53.3154C356.258 53.3154 356.428 53.3754 356.548 53.4954C356.688 53.6154 356.758 53.7954 356.758 54.0354C356.758 54.2754 356.638 54.5254 356.398 54.7854C356.178 55.0254 355.898 55.2354 355.558 55.4154C355.238 55.5754 354.928 55.6554 354.628 55.6554C354.408 55.6554 354.198 55.5254 353.998 55.2654C353.798 54.9854 353.618 54.6554 353.458 54.2754C353.318 53.8754 353.188 53.4954 353.068 53.1354L352.888 52.4454L351.598 53.6754C351.338 53.9554 351.078 54.2154 350.818 54.4554C350.578 54.6754 350.428 54.8354 350.368 54.9354C350.268 55.1154 350.078 55.2954 349.798 55.4754C349.538 55.6554 349.178 55.8354 348.718 56.0154ZM348.808 54.2454C349.148 54.0454 349.538 53.7554 349.978 53.3754C350.418 52.9754 350.848 52.5454 351.268 52.0854C351.688 51.6054 352.038 51.1654 352.318 50.7654C352.658 50.3054 352.918 49.8754 353.098 49.4754C353.278 49.0754 353.408 48.6954 353.488 48.3354C353.408 48.1154 353.278 47.8854 353.098 47.6454C352.918 47.3854 352.758 47.2454 352.618 47.2254C352.178 47.2254 351.708 47.5054 351.208 48.0654C350.728 48.6054 350.258 49.1954 349.798 49.8354C349.718 49.9354 349.608 50.0954 349.468 50.3154C349.328 50.5354 349.188 50.7454 349.048 50.9454C348.928 51.1254 348.848 51.2454 348.808 51.3054C348.748 51.3854 348.628 51.6154 348.448 51.9954C348.288 52.3554 348.128 52.7254 347.968 53.1054C347.808 53.4654 347.728 53.7054 347.728 53.8254C347.728 53.9454 347.738 54.0754 347.758 54.2154C347.798 54.3554 347.898 54.4454 348.058 54.4854C348.218 54.5254 348.468 54.4454 348.808 54.2454Z" fill="#565EF9"/>
<path d="M230.976 40.647C215.558 33.4347 199.32 31.4289 186.494 30.8473C162.097 29.7408 145.671 36.4431 133.51 45.1142C129.811 47.752 124.55 49.8919 121.155 52.5704C119.824 53.6207 122.662 49.1673 123.05 48.3457C123.498 47.396 123.618 43.3924 123.424 43.8033C122.384 46.0094 124.307 49.4276 123.283 51.5998C122.513 53.2317 120.175 54.7963 125.607 55.8325C129.416 56.5591 133.204 56.9878 136.62 57.0527" stroke="#565EF9" stroke-width="2" stroke-linecap="round"/>
</svg>
