<svg width="411" height="188" viewBox="0 0 411 188" fill="none" xmlns="http://www.w3.org/2000/svg">
<path d="M73.88 30.11C73.62 29.95 73.48 29.79 73.46 29.63C73.44 29.49 73.49 29.21 73.61 28.79C73.59 28.53 73.6 28.29 73.64 28.07C73.7 27.85 73.74 27.7 73.76 27.62C73.86 27.62 73.92 27.56 73.94 27.44C73.96 27.32 73.97 27.22 73.97 27.14C73.97 26.98 74.03 26.71 74.15 26.33C74.29 25.95 74.41 25.56 74.51 25.16C74.67 24.76 74.82 24.39 74.96 24.05C75.12 23.69 75.2 23.47 75.2 23.39C75.2 23.23 75.24 23.07 75.32 22.91C75.4 22.73 75.49 22.56 75.59 22.4C75.69 22.16 75.76 21.9 75.8 21.62C75.86 21.32 75.89 21.09 75.89 20.93C76.01 20.67 76.14 20.39 76.28 20.09C76.42 19.79 76.53 19.48 76.61 19.16C76.73 18.82 76.9 18.33 77.12 17.69C77.36 17.03 77.61 16.36 77.87 15.68C78.05 15.3 78.23 14.9 78.41 14.48C78.59 14.06 78.75 13.7 78.89 13.4C79.03 13.1 79.13 12.95 79.19 12.95C79.19 12.95 79.19 12.92 79.19 12.86C79.19 12.78 79.19 12.7 79.19 12.62C79.19 12.52 79.27 12.33 79.43 12.05C79.59 11.75 79.74 11.44 79.88 11.12C80.08 10.82 80.22 10.54 80.3 10.28C80.38 10 80.42 9.86 80.42 9.86C80.42 9.86 80.45 9.8 80.51 9.68C80.59 9.56 80.67 9.46 80.75 9.38C81.01 9.2 81.25 9.13 81.47 9.17C81.71 9.21 81.91 9.4 82.07 9.74C82.23 10.06 82.3 10.33 82.28 10.55C82.26 10.75 82.17 10.97 82.01 11.21C81.85 11.57 81.64 12.03 81.38 12.59C81.12 13.13 80.84 13.72 80.54 14.36C80.26 14.98 79.99 15.58 79.73 16.16C79.49 16.72 79.29 17.21 79.13 17.63C78.99 18.03 78.92 18.28 78.92 18.38L77.69 21.41C77.69 21.45 77.65 21.55 77.57 21.71C77.51 21.87 77.42 22.11 77.3 22.43C77.2 22.75 77.07 23.17 76.91 23.69C76.75 24.21 76.56 24.84 76.34 25.58C75.94 26.86 75.63 27.86 75.41 28.58C75.19 29.28 75.01 29.76 74.87 30.02C74.75 30.3 74.62 30.44 74.48 30.44C74.4 30.44 74.31 30.4 74.21 30.32C74.13 30.26 74.02 30.19 73.88 30.11ZM84.47 30.35C84.29 30.37 84.04 30.28 83.72 30.08C83.42 29.9 83.09 29.67 82.73 29.39C82.39 29.11 82.06 28.82 81.74 28.52C81.44 28.22 81.2 27.96 81.02 27.74C80.7 27.28 80.3 26.68 79.82 25.94C79.34 25.18 78.98 24.37 78.74 23.51C78.6 22.87 78.46 22.37 78.32 22.01C78.18 21.63 78.09 21.32 78.05 21.08L78.08 18.98L79.61 19.46C79.71 20.54 79.86 21.44 80.06 22.16C80.28 22.86 80.54 23.48 80.84 24.02C81.08 24.54 81.35 25.06 81.65 25.58C81.95 26.08 82.27 26.5 82.61 26.84C83.07 27.34 83.48 27.71 83.84 27.95C84.2 28.19 84.47 28.31 84.65 28.31C84.75 28.33 84.89 28.4 85.07 28.52C85.27 28.64 85.45 28.77 85.61 28.91C85.79 29.03 85.89 29.15 85.91 29.27C85.93 29.33 85.94 29.42 85.94 29.54C85.94 29.68 85.92 29.8 85.88 29.9C85.86 30.02 85.83 30.11 85.79 30.17C85.73 30.31 85.62 30.43 85.46 30.53C85.32 30.65 84.99 30.59 84.47 30.35ZM77.75 19.22L79.94 17.63C80 17.57 80.21 17.37 80.57 17.03C80.95 16.69 81.57 16.2 82.43 15.56L86.12 12.56C86.62 12.3 87.13 11.97 87.65 11.57C88.19 11.17 88.6 10.88 88.88 10.7C89.22 10.46 89.52 10.25 89.78 10.07C90.04 9.89 90.21 9.81 90.29 9.83C90.45 9.75 90.61 9.78 90.77 9.92C90.95 10.04 91.09 10.21 91.19 10.43C91.31 10.63 91.36 10.81 91.34 10.97C91.38 11.17 91.34 11.34 91.22 11.48C91.1 11.62 90.81 11.82 90.35 12.08C89.97 12.26 89.63 12.44 89.33 12.62C89.05 12.8 88.88 12.95 88.82 13.07C88.82 13.07 88.63 13.22 88.25 13.52C87.89 13.8 87.42 14.14 86.84 14.54C86.04 15.06 85.35 15.55 84.77 16.01C84.21 16.47 83.85 16.82 83.69 17.06C83.61 17.06 83.53 17.09 83.45 17.15C83.39 17.21 83.32 17.23 83.24 17.21C83.24 17.21 83.16 17.26 83 17.36C82.86 17.46 82.75 17.56 82.67 17.66C82.63 17.76 82.54 17.9 82.4 18.08C82.28 18.26 82.12 18.34 81.92 18.32C81.78 18.4 81.53 18.57 81.17 18.83C80.81 19.07 80.43 19.34 80.03 19.64C79.65 19.94 79.32 20.21 79.04 20.45C78.76 20.69 78.61 20.83 78.59 20.87L77.75 19.22ZM87.6514 28.88C87.5714 28.84 87.4614 28.76 87.3214 28.64C87.2014 28.52 87.0914 28.4 86.9914 28.28C86.9314 28.22 86.8814 28.17 86.8414 28.13C86.8014 28.07 86.7614 28.03 86.7214 28.01C86.7214 27.87 86.7514 27.77 86.8114 27.71C86.8914 27.65 86.9714 27.58 87.0514 27.5C87.1314 27.38 87.2614 27.32 87.4414 27.32C87.6214 27.32 87.7614 27.27 87.8614 27.17C88.2214 26.91 88.5914 26.64 88.9714 26.36C89.3514 26.08 89.6714 25.75 89.9314 25.37C90.2114 24.97 90.4914 24.54 90.7714 24.08C91.0514 23.62 91.3214 23.17 91.5814 22.73C91.6614 22.59 91.7914 22.34 91.9714 21.98C92.1514 21.62 92.3214 21.27 92.4814 20.93C92.6614 20.57 92.7614 20.32 92.7814 20.18C92.6014 20.12 92.4314 20.07 92.2714 20.03C92.1314 19.97 91.9914 19.92 91.8514 19.88C91.6714 19.6 91.5714 19.44 91.5514 19.4C91.5314 19.34 91.5214 19.15 91.5214 18.83C91.5214 18.59 91.6514 18.44 91.9114 18.38C92.4914 18.24 93.0014 18.15 93.4414 18.11C93.9014 18.07 94.3514 17.99 94.7914 17.87C95.0714 17.79 95.4114 17.76 95.8114 17.78C96.2114 17.8 96.6114 17.89 97.0114 18.05C97.1914 18.13 97.3414 18.23 97.4614 18.35C97.5814 18.47 97.6914 18.61 97.7914 18.77C98.0514 19.13 98.1814 19.44 98.1814 19.7C98.2014 19.96 98.1914 20.21 98.1514 20.45C98.1114 20.69 98.1414 20.96 98.2414 21.26C98.1014 21.8 97.9614 22.28 97.8214 22.7C97.6814 23.1 97.5514 23.48 97.4314 23.84C97.3114 24.18 97.2014 24.5 97.1014 24.8C97.0014 25.1 96.9214 25.4 96.8614 25.7C96.7814 26.02 96.6814 26.34 96.5614 26.66C96.4414 26.98 96.3514 27.31 96.2914 27.65C96.2514 27.91 96.1314 28.1 95.9314 28.22C95.7514 28.34 95.5514 28.45 95.3314 28.55C95.2514 28.57 95.1114 28.55 94.9114 28.49C94.7314 28.41 94.5614 28.3 94.4014 28.16C94.3414 27.94 94.3214 27.74 94.3414 27.56C94.3614 27.38 94.4014 27.2 94.4614 27.02C94.5214 26.86 94.6314 26.5 94.7914 25.94C94.9514 25.38 95.1314 24.75 95.3314 24.05C95.5314 23.35 95.7214 22.7 95.9014 22.1C96.0814 21.5 96.2014 21.08 96.2614 20.84C96.3614 20.52 96.3914 20.28 96.3514 20.12C96.3314 19.96 96.3014 19.81 96.2614 19.67C95.8414 19.51 95.5514 19.46 95.3914 19.52C95.2514 19.56 95.0714 19.6 94.8514 19.64C94.7514 19.72 94.6714 19.81 94.6114 19.91C94.5514 20.01 94.5114 20.11 94.4914 20.21C94.2714 20.79 94.0814 21.25 93.9214 21.59C93.7814 21.93 93.6414 22.24 93.5014 22.52C93.3614 22.78 93.2014 23.07 93.0214 23.39C92.8614 23.71 92.6514 24.15 92.3914 24.71C92.2314 25.07 92.0314 25.4 91.7914 25.7C91.5714 26 91.3714 26.32 91.1914 26.66L90.8614 27.08C90.8814 27.08 90.8014 27.16 90.6214 27.32C90.4414 27.48 90.2614 27.64 90.0814 27.8C89.9214 27.96 89.8414 28.04 89.8414 28.04L88.9114 28.76C88.8114 28.84 88.6414 28.88 88.4014 28.88C88.1614 28.88 87.9114 28.88 87.6514 28.88ZM106.717 28.94C106.517 28.74 106.317 28.47 106.117 28.13C105.917 27.77 105.757 27.36 105.637 26.9C105.597 26.74 105.577 26.52 105.577 26.24C105.597 25.96 105.597 25.76 105.577 25.64C105.517 25.78 105.417 25.93 105.277 26.09C105.157 26.23 105.037 26.35 104.917 26.45C104.837 26.53 104.657 26.69 104.377 26.93C104.097 27.15 103.817 27.33 103.537 27.47C102.877 27.89 102.327 28.12 101.887 28.16C101.467 28.2 101.067 27.98 100.687 27.5C100.367 27.24 100.137 26.95 99.9969 26.63C99.8769 26.31 99.8769 25.87 99.9969 25.31C100.037 24.61 100.137 23.93 100.297 23.27C100.457 22.59 100.787 21.69 101.287 20.57C101.707 19.75 102.027 19.15 102.247 18.77C102.467 18.37 102.607 18.13 102.667 18.05C102.967 17.95 103.217 17.96 103.417 18.08C103.617 18.18 103.737 18.37 103.777 18.65C103.897 18.85 103.877 19.19 103.717 19.67C103.577 20.15 103.327 20.74 102.967 21.44C102.687 22.12 102.427 22.8 102.187 23.48C101.967 24.16 101.837 24.74 101.797 25.22C101.757 25.7 101.877 25.99 102.157 26.09C102.337 26.19 102.647 26.16 103.087 26C103.547 25.84 104.057 25.44 104.617 24.8C105.197 24.16 105.757 23.19 106.297 21.89C106.457 21.49 106.577 21.14 106.657 20.84C106.737 20.52 106.787 20.17 106.807 19.79C106.767 19.55 106.777 19.34 106.837 19.16C106.917 18.96 107.077 18.79 107.317 18.65C107.397 18.55 107.507 18.46 107.647 18.38C107.787 18.28 107.877 18.28 107.917 18.38L108.397 18.35C108.477 18.33 108.527 18.38 108.547 18.5C108.587 18.6 108.657 18.69 108.757 18.77C108.977 18.95 109.037 19.34 108.937 19.94C108.837 20.54 108.557 21.38 108.097 22.46C107.717 23.28 107.457 23.9 107.317 24.32C107.197 24.74 107.127 25.15 107.107 25.55C107.107 25.91 107.177 26.25 107.317 26.57C107.457 26.89 107.677 27.18 107.977 27.44C108.197 27.58 108.317 27.74 108.337 27.92C108.377 28.1 108.387 28.31 108.367 28.55C108.327 28.73 108.207 28.88 108.007 29C107.827 29.1 107.617 29.15 107.377 29.15C107.137 29.15 106.917 29.08 106.717 28.94ZM111.01 28.85C110.85 28.79 110.68 28.67 110.5 28.49C110.32 28.29 110.17 28.06 110.05 27.8C109.93 27.54 109.87 27.3 109.87 27.08C109.97 26.86 110.1 26.48 110.26 25.94C110.42 25.38 110.62 24.74 110.86 24.02C111.02 23.8 111.14 23.54 111.22 23.24C111.32 22.94 111.41 22.67 111.49 22.43C111.65 22.11 111.84 21.7 112.06 21.2C112.28 20.68 112.49 20.16 112.69 19.64C112.91 19.1 113.1 18.65 113.26 18.29C113.48 17.77 113.61 17.45 113.65 17.33C113.69 17.19 113.72 17.08 113.74 17C113.74 16.84 113.78 16.71 113.86 16.61C113.94 16.49 114.02 16.43 114.1 16.43C114.18 16.35 114.27 16.31 114.37 16.31C114.49 16.29 114.59 16.28 114.67 16.28C114.89 16.28 115.08 16.43 115.24 16.73C115.4 17.01 115.48 17.27 115.48 17.51C115.48 17.75 115.39 18.09 115.21 18.53C115.05 18.95 114.86 19.39 114.64 19.85C114.44 20.31 114.27 20.71 114.13 21.05C113.99 21.39 113.95 21.59 114.01 21.65C114.01 21.65 114.15 21.59 114.43 21.47C114.71 21.33 115.01 21.14 115.33 20.9C115.55 20.78 115.79 20.63 116.05 20.45C116.31 20.27 116.56 20.1 116.8 19.94C117.04 19.76 117.24 19.65 117.4 19.61C117.64 19.45 117.89 19.3 118.15 19.16C118.41 19 118.58 18.88 118.66 18.8C119 18.64 119.25 18.59 119.41 18.65C119.59 18.71 119.77 18.86 119.95 19.1C120.17 19.36 120.21 19.59 120.07 19.79C119.93 19.97 119.6 20.22 119.08 20.54C118.66 20.8 118.15 21.11 117.55 21.47C116.97 21.83 116.45 22.15 115.99 22.43C115.55 22.71 115.3 22.88 115.24 22.94C115.24 22.94 115.32 23.09 115.48 23.39C115.64 23.69 115.8 23.96 115.96 24.2C116.12 24.52 116.29 24.82 116.47 25.1C116.67 25.36 116.77 25.54 116.77 25.64C116.93 26.06 117.13 26.41 117.37 26.69C117.61 26.95 117.88 27.12 118.18 27.2C118.5 27.26 118.82 27.22 119.14 27.08C119.54 26.92 119.83 26.87 120.01 26.93C120.21 26.99 120.35 27.14 120.43 27.38C120.51 27.54 120.53 27.66 120.49 27.74C120.47 27.8 120.34 27.95 120.1 28.19C119.72 28.57 119.33 28.81 118.93 28.91C118.55 29.01 118.2 28.98 117.88 28.82C117.68 28.82 117.45 28.74 117.19 28.58C116.93 28.4 116.61 28.11 116.23 27.71C115.87 27.31 115.42 26.75 114.88 26.03C114.88 25.95 114.84 25.84 114.76 25.7C114.7 25.54 114.63 25.39 114.55 25.25C114.47 25.09 114.37 24.92 114.25 24.74C114.13 24.54 114.07 24.44 114.07 24.44C114.07 24.38 114.05 24.33 114.01 24.29C113.99 24.23 113.95 24.16 113.89 24.08C113.85 24 113.8 23.91 113.74 23.81C113.42 23.71 113.19 23.77 113.05 23.99C112.91 24.21 112.76 24.44 112.6 24.68C112.5 24.94 112.37 25.31 112.21 25.79C112.07 26.25 111.95 26.7 111.85 27.14C111.77 27.58 111.75 27.88 111.79 28.04C111.79 28.36 111.74 28.58 111.64 28.7C111.54 28.8 111.33 28.85 111.01 28.85ZM123.167 28.31C123.027 28.27 122.837 28.23 122.597 28.19C122.357 28.15 122.137 28.08 121.937 27.98C121.757 27.86 121.667 27.71 121.667 27.53C121.667 27.37 121.677 27.23 121.697 27.11C121.737 26.97 121.817 26.85 121.937 26.75C121.957 26.71 121.967 26.68 121.967 26.66C121.967 26.64 121.977 26.62 121.997 26.6C121.997 26.5 121.977 26.41 121.937 26.33C121.897 26.25 121.897 26.15 121.937 26.03C122.017 25.81 122.077 25.63 122.117 25.49C122.177 25.33 122.207 25.13 122.207 24.89C122.207 24.85 122.207 24.81 122.207 24.77C122.207 24.71 122.217 24.66 122.237 24.62C122.397 24.18 122.527 23.73 122.627 23.27C122.727 22.81 122.877 22.37 123.077 21.95C123.317 21.43 123.627 20.75 124.007 19.91C124.387 19.05 124.707 18.26 124.967 17.54C125.047 17.32 125.137 17.18 125.237 17.12C125.357 17.04 125.487 17.01 125.627 17.03C125.867 17.05 126.107 17.19 126.347 17.45C126.587 17.69 126.767 17.9 126.887 18.08C126.687 18.46 126.447 18.91 126.167 19.43C125.907 19.93 125.657 20.42 125.417 20.9C125.197 21.36 125.037 21.74 124.937 22.04C125.217 22.06 125.547 22.06 125.927 22.04C126.327 22 126.717 22 127.097 22.04C127.537 22.08 127.927 22.08 128.267 22.04C128.607 22 128.987 21.95 129.407 21.89C129.507 21.59 129.607 21.25 129.707 20.87C129.827 20.49 129.947 20.1 130.067 19.7C130.207 19.3 130.377 18.93 130.577 18.59C130.777 18.25 131.027 17.99 131.327 17.81C131.487 17.77 131.607 17.77 131.687 17.81C131.767 17.83 131.877 17.89 132.017 17.99C132.277 18.19 132.467 18.35 132.587 18.47C132.727 18.57 132.777 18.69 132.737 18.83C132.697 18.97 132.567 19.2 132.347 19.52C132.207 19.74 132.107 20 132.047 20.3C131.987 20.58 131.877 20.82 131.717 21.02C131.677 21.06 131.597 21.24 131.477 21.56C131.357 21.88 131.217 22.27 131.057 22.73C130.897 23.19 130.737 23.65 130.577 24.11C130.417 24.57 130.277 24.97 130.157 25.31C130.057 25.65 130.007 25.85 130.007 25.91C129.987 26.17 129.947 26.44 129.887 26.72C129.827 26.98 129.797 27.25 129.797 27.53C129.797 27.69 129.747 27.81 129.647 27.89C129.567 27.95 129.457 27.98 129.317 27.98C129.117 27.98 128.897 27.93 128.657 27.83C128.417 27.73 128.237 27.64 128.117 27.56C128.037 27.5 127.967 27.4 127.907 27.26C127.867 27.12 127.837 27 127.817 26.9C127.937 26.4 128.077 25.93 128.237 25.49C128.417 25.03 128.577 24.56 128.717 24.08C128.757 24 128.777 23.92 128.777 23.84C128.777 23.76 128.757 23.68 128.717 23.6C128.057 23.5 127.387 23.48 126.707 23.54C126.027 23.6 125.357 23.65 124.697 23.69C124.597 23.79 124.477 24.03 124.337 24.41C124.217 24.77 124.107 25.15 124.007 25.55C123.907 25.93 123.827 26.22 123.767 26.42C123.787 26.56 123.767 26.76 123.707 27.02C123.647 27.28 123.567 27.54 123.467 27.8C123.367 28.04 123.267 28.21 123.167 28.31ZM142.429 28.64C141.769 28.4 141.259 27.95 140.899 27.29C140.539 26.61 140.309 25.95 140.209 25.31C140.189 25.31 140.129 25.35 140.029 25.43C139.949 25.49 139.849 25.59 139.729 25.73C139.449 26.01 139.099 26.36 138.679 26.78C138.259 27.18 137.819 27.54 137.359 27.86C136.919 28.16 136.499 28.29 136.099 28.25C135.939 28.15 135.769 28.04 135.589 27.92C135.429 27.78 135.269 27.64 135.109 27.5C135.029 27.42 134.959 27.34 134.899 27.26C134.859 27.18 134.819 27.09 134.779 26.99C134.559 26.39 134.439 25.86 134.419 25.4C134.399 24.92 134.449 24.45 134.569 23.99C134.709 23.51 134.869 22.98 135.049 22.4C135.069 22.34 135.139 22.09 135.259 21.65C135.399 21.21 135.559 20.71 135.739 20.15C135.919 19.59 136.089 19.09 136.249 18.65C136.429 18.21 136.559 17.95 136.639 17.87C136.699 17.87 136.759 17.87 136.819 17.87C136.899 17.85 136.969 17.84 137.029 17.84C137.229 17.84 137.379 17.91 137.479 18.05C137.559 18.17 137.659 18.26 137.779 18.32C137.919 18.38 138.019 18.46 138.079 18.56C138.179 18.76 138.109 19.19 137.869 19.85C137.629 20.49 137.369 21.22 137.089 22.04C136.829 22.78 136.609 23.53 136.429 24.29C136.249 25.03 136.239 25.65 136.399 26.15C136.539 26.15 136.729 26.03 136.969 25.79C137.229 25.53 137.429 25.35 137.569 25.25C137.769 25.13 138.029 24.9 138.349 24.56C138.689 24.2 139.019 23.84 139.339 23.48C139.659 23.1 139.879 22.81 139.999 22.61C140.079 22.49 140.199 22.27 140.359 21.95C140.519 21.61 140.679 21.25 140.839 20.87C141.019 20.47 141.159 20.1 141.259 19.76C141.379 19.42 141.429 19.18 141.409 19.04C141.389 18.84 141.409 18.69 141.469 18.59C141.549 18.47 141.669 18.36 141.829 18.26C141.929 18.26 142.039 18.26 142.159 18.26C142.279 18.26 142.389 18.27 142.489 18.29C142.609 18.43 142.739 18.56 142.879 18.68C143.019 18.8 143.159 18.93 143.299 19.07C143.399 19.45 143.339 19.96 143.119 20.6C142.899 21.24 142.679 21.93 142.459 22.67C142.239 23.41 142.099 24.16 142.039 24.92C141.979 25.66 142.179 26.31 142.639 26.87C143.059 26.69 143.379 26.52 143.599 26.36C143.839 26.18 144.069 26 144.289 25.82C144.509 25.62 144.789 25.42 145.129 25.22C145.329 25.34 145.479 25.58 145.579 25.94C145.679 26.3 145.729 26.59 145.729 26.81C145.649 26.87 145.569 26.93 145.489 26.99C145.429 27.03 145.379 27.09 145.339 27.17C145.219 27.43 144.979 27.69 144.619 27.95C144.259 28.21 143.879 28.42 143.479 28.58C143.079 28.72 142.729 28.74 142.429 28.64ZM145.919 31.37C145.719 31.37 145.589 31.35 145.529 31.31C145.489 31.29 145.429 31.21 145.349 31.07C145.349 30.93 145.379 30.81 145.439 30.71C145.519 30.61 145.629 30.49 145.769 30.35C145.969 30.15 146.199 29.9 146.459 29.6C146.719 29.32 146.959 29.03 147.179 28.73C147.419 28.43 147.589 28.19 147.689 28.01C147.769 27.79 147.839 27.53 147.899 27.23C147.979 26.93 148.059 26.6 148.139 26.24C148.139 26.08 148.139 25.94 148.139 25.82C148.159 25.68 148.209 25.57 148.289 25.49C148.429 25.35 148.549 25.29 148.649 25.31C148.769 25.33 148.869 25.45 148.949 25.67C149.049 25.89 149.119 26.22 149.159 26.66C149.239 27.1 149.239 27.5 149.159 27.86C149.079 28.22 148.929 28.66 148.709 29.18C148.669 29.32 148.539 29.53 148.319 29.81C148.099 30.09 147.879 30.35 147.659 30.59C147.439 30.83 147.299 30.95 147.239 30.95C147.159 30.95 147.089 30.97 147.029 31.01C146.969 31.07 146.899 31.14 146.819 31.22C146.739 31.3 146.619 31.34 146.459 31.34C146.319 31.36 146.139 31.37 145.919 31.37ZM165.642 28.55C165.462 28.47 165.282 28.38 165.102 28.28C164.942 28.18 164.812 28.03 164.712 27.83C164.552 27.59 164.462 27.3 164.442 26.96C164.442 26.62 164.452 26.21 164.472 25.73C164.472 25.65 164.512 25.48 164.592 25.22C164.672 24.96 164.762 24.68 164.862 24.38C164.982 24.06 165.082 23.79 165.162 23.57C165.242 23.33 165.282 23.2 165.282 23.18C165.082 23.22 164.912 23.29 164.772 23.39C164.632 23.49 164.492 23.59 164.352 23.69C164.152 23.89 163.882 24.09 163.542 24.29C163.202 24.49 162.892 24.64 162.612 24.74C162.412 24.82 162.132 24.79 161.772 24.65C161.432 24.49 161.182 24.27 161.022 23.99C160.962 23.85 160.912 23.72 160.872 23.6C160.852 23.46 160.832 23.32 160.812 23.18C160.732 22.52 160.842 21.88 161.142 21.26C161.382 20.74 161.632 20.23 161.892 19.73C162.152 19.21 162.402 18.7 162.642 18.2C162.742 18.04 162.842 17.89 162.942 17.75C163.042 17.59 163.112 17.43 163.152 17.27C163.172 17.21 163.232 17.12 163.332 17C163.432 16.88 163.542 16.82 163.662 16.82C163.882 16.84 164.082 16.89 164.262 16.97C164.462 17.03 164.632 17.17 164.772 17.39C164.892 17.53 164.952 17.69 164.952 17.87C164.952 18.03 164.872 18.21 164.712 18.41C164.332 18.93 163.982 19.48 163.662 20.06C163.362 20.64 163.072 21.22 162.792 21.8C162.712 21.96 162.642 22.15 162.582 22.37C162.522 22.59 162.512 22.8 162.552 23C162.852 23 163.262 22.82 163.782 22.46C164.302 22.08 164.852 21.65 165.432 21.17C166.012 20.69 166.522 20.27 166.962 19.91C167.422 19.53 167.822 19.07 168.162 18.53C168.262 18.37 168.382 18.25 168.522 18.17C168.662 18.07 168.852 18.01 169.092 17.99C169.152 18.01 169.232 18.05 169.332 18.11C169.432 18.17 169.542 18.22 169.662 18.26C169.762 18.5 169.852 18.69 169.932 18.83C170.032 18.97 170.072 19.11 170.052 19.25C170.032 19.39 169.892 19.6 169.632 19.88C169.532 19.9 169.362 20.07 169.122 20.39C168.882 20.69 168.642 21.03 168.402 21.41C168.162 21.77 167.982 22.07 167.862 22.31C167.802 22.41 167.722 22.52 167.622 22.64C167.542 22.74 167.462 22.86 167.382 23L166.242 25.76C166.222 25.94 166.192 26.14 166.152 26.36C166.112 26.56 166.132 26.72 166.212 26.84C166.372 26.84 166.512 26.82 166.632 26.78C166.752 26.74 166.852 26.79 166.932 26.93C167.032 27.25 167.082 27.48 167.082 27.62C167.102 27.74 166.962 27.97 166.662 28.31C166.382 28.61 166.042 28.69 165.642 28.55ZM171.315 27.89C171.255 27.81 171.195 27.71 171.135 27.59C171.095 27.47 171.075 27.37 171.075 27.29C171.075 27.25 171.065 27.2 171.045 27.14C171.045 27.08 171.005 27.05 170.925 27.05C170.865 26.99 170.905 26.76 171.045 26.36C171.205 25.94 171.405 25.46 171.645 24.92C171.905 24.38 172.165 23.86 172.425 23.36C172.705 22.84 172.935 22.43 173.115 22.13C173.215 22.07 173.275 21.99 173.295 21.89C173.335 21.77 173.335 21.71 173.295 21.71C173.295 21.71 173.345 21.62 173.445 21.44C173.565 21.24 173.655 21.11 173.715 21.05C173.875 20.77 173.995 20.49 174.075 20.21C174.155 19.91 174.175 19.66 174.135 19.46C174.055 19.36 173.965 19.33 173.865 19.37C173.765 19.41 173.715 19.43 173.715 19.43C173.635 19.45 173.515 19.49 173.355 19.55C173.215 19.59 173.085 19.65 172.965 19.73C172.505 20.05 172.195 20.2 172.035 20.18C171.875 20.14 171.695 19.88 171.495 19.4C171.415 19.18 171.385 19.02 171.405 18.92C171.425 18.82 171.505 18.71 171.645 18.59C171.805 18.45 171.955 18.36 172.095 18.32C172.235 18.26 172.345 18.2 172.425 18.14C172.645 18 172.825 17.9 172.965 17.84C173.125 17.78 173.245 17.74 173.325 17.72C173.845 17.56 174.285 17.53 174.645 17.63C175.005 17.73 175.275 17.99 175.455 18.41C175.735 18.75 175.875 19.14 175.875 19.58C175.875 20 175.735 20.49 175.455 21.05L175.155 21.5C175.055 21.7 175.035 21.8 175.095 21.8C175.175 21.8 175.265 21.73 175.365 21.59C175.425 21.51 175.545 21.39 175.725 21.23C175.905 21.07 176.025 20.99 176.085 20.99C176.085 20.99 176.105 20.98 176.145 20.96C176.205 20.94 176.235 20.86 176.235 20.72C176.295 20.66 176.355 20.6 176.415 20.54C176.495 20.48 176.535 20.45 176.535 20.45C176.615 20.45 176.765 20.36 176.985 20.18C177.225 19.98 177.505 19.75 177.825 19.49C178.045 19.33 178.245 19.25 178.425 19.25C178.885 19.11 179.255 19.26 179.535 19.7C179.835 20.14 179.985 20.71 179.985 21.41L179.355 23.03L180.435 21.71C180.555 21.55 180.675 21.41 180.795 21.29C180.935 21.17 181.055 21.07 181.155 20.99C181.195 20.85 181.255 20.77 181.335 20.75C181.415 20.73 181.455 20.72 181.455 20.72C181.455 20.72 181.475 20.72 181.515 20.72C181.555 20.7 181.575 20.66 181.575 20.6C181.675 20.52 181.785 20.45 181.905 20.39C182.025 20.31 182.105 20.23 182.145 20.15C182.485 20.01 182.795 19.99 183.075 20.09C183.355 20.17 183.595 20.42 183.795 20.84C183.935 21.08 184.015 21.29 184.035 21.47C184.055 21.65 184.065 21.92 184.065 22.28C184.025 22.58 183.985 22.82 183.945 23C183.925 23.16 183.905 23.33 183.885 23.51C183.865 23.69 183.835 23.94 183.795 24.26C183.715 24.42 183.665 24.59 183.645 24.77C183.645 24.95 183.645 25.12 183.645 25.28C183.645 25.54 183.655 25.72 183.675 25.82C183.695 25.9 183.775 25.94 183.915 25.94C184.195 25.88 184.575 25.74 185.055 25.52C185.555 25.28 185.925 25.05 186.165 24.83C186.465 24.55 186.725 24.41 186.945 24.41C187.185 24.39 187.335 24.5 187.395 24.74C187.435 24.82 187.365 25 187.185 25.28C187.025 25.56 186.835 25.83 186.615 26.09C186.415 26.35 186.265 26.48 186.165 26.48C186.105 26.48 186.035 26.54 185.955 26.66C185.875 26.76 185.785 26.84 185.685 26.9C185.545 27.04 185.405 27.17 185.265 27.29C185.145 27.41 185.005 27.47 184.845 27.47C184.765 27.47 184.665 27.5 184.545 27.56C184.445 27.6 184.325 27.62 184.185 27.62C183.985 27.68 183.675 27.65 183.255 27.53C182.855 27.41 182.595 27.13 182.475 26.69C182.395 26.47 182.325 26.12 182.265 25.64C182.205 25.14 182.215 24.64 182.295 24.14C182.375 23.78 182.425 23.45 182.445 23.15C182.465 22.85 182.505 22.64 182.565 22.52C182.565 22.46 182.565 22.32 182.565 22.1C182.565 21.86 182.535 21.74 182.475 21.74C182.395 21.74 182.205 21.89 181.905 22.19C181.625 22.47 181.285 22.83 180.885 23.27C180.505 23.71 180.125 24.17 179.745 24.65C179.365 25.13 179.055 25.56 178.815 25.94C178.635 26.16 178.475 26.43 178.335 26.75C178.195 27.07 178.095 27.25 178.035 27.29C177.895 27.45 177.725 27.47 177.525 27.35C177.345 27.23 177.175 27.04 177.015 26.78C176.955 26.66 176.915 26.56 176.895 26.48C176.875 26.38 176.875 26.25 176.895 26.09C176.935 25.91 177.005 25.65 177.105 25.31C177.225 24.97 177.385 24.49 177.585 23.87C177.805 23.19 177.995 22.58 178.155 22.04C178.335 21.48 178.425 21.2 178.425 21.2C178.425 21.12 178.275 21.2 177.975 21.44C177.675 21.66 177.325 21.94 176.925 22.28C176.745 22.5 176.445 22.83 176.025 23.27C175.605 23.71 175.145 24.21 174.645 24.77C174.145 25.33 173.665 25.92 173.205 26.54C172.625 27.36 172.215 27.86 171.975 28.04C171.755 28.22 171.535 28.17 171.315 27.89ZM190.914 28.55C190.654 28.55 190.444 28.5 190.284 28.4C190.144 28.3 189.964 28.16 189.744 27.98C189.364 27.58 189.094 27.2 188.934 26.84C188.774 26.46 188.724 26.1 188.784 25.76C188.844 25.6 188.864 25.45 188.844 25.31C188.844 25.15 188.844 25.07 188.844 25.07C188.744 24.97 188.714 24.91 188.754 24.89C188.794 24.85 188.834 24.79 188.874 24.71C188.994 24.71 189.034 24.6 188.994 24.38C188.954 24.22 189.034 23.87 189.234 23.33C189.434 22.79 189.684 22.28 189.984 21.8C190.104 21.6 190.284 21.34 190.524 21.02C190.764 20.68 191.024 20.35 191.304 20.03C191.604 19.69 191.874 19.42 192.114 19.22C192.614 18.8 193.054 18.49 193.434 18.29C193.814 18.09 194.224 17.94 194.664 17.84C195.104 17.74 195.404 17.69 195.564 17.69C195.744 17.69 195.984 17.85 196.284 18.17C196.744 18.37 197.074 18.61 197.274 18.89C197.494 19.17 197.634 19.58 197.694 20.12C197.754 20.72 197.704 21.41 197.544 22.19C197.404 22.95 196.934 23.9 196.134 25.04C195.634 25.76 195.174 26.3 194.754 26.66C194.334 27 193.834 27.34 193.254 27.68C192.834 27.96 192.454 28.17 192.114 28.31C191.774 28.43 191.374 28.51 190.914 28.55ZM193.794 25.37C194.274 24.83 194.654 24.32 194.934 23.84C195.234 23.36 195.514 22.75 195.774 22.01C195.854 21.79 195.904 21.52 195.924 21.2C195.944 20.86 195.934 20.55 195.894 20.27C195.874 19.97 195.804 19.8 195.684 19.76C195.444 19.62 195.154 19.58 194.814 19.64C194.474 19.68 194.104 19.87 193.704 20.21C193.084 20.73 192.544 21.38 192.084 22.16C191.624 22.92 191.174 23.79 190.734 24.77C190.434 25.49 190.364 26.07 190.524 26.51C190.704 26.93 191.074 27.08 191.634 26.96C192.214 26.82 192.934 26.29 193.794 25.37ZM205.09 20.21C204.45 20.41 203.88 20.74 203.38 21.2C202.88 21.64 202.45 22.12 202.09 22.64C201.71 23.18 201.4 23.73 201.16 24.29C200.94 24.85 200.78 25.33 200.68 25.73C200.58 26.19 200.6 26.53 200.74 26.75C200.9 26.95 201.1 27.07 201.34 27.11C201.62 27.15 201.91 27.11 202.21 26.99C202.51 26.85 202.7 26.68 202.78 26.48C203.24 26.02 203.67 25.51 204.07 24.95C204.49 24.39 204.8 23.73 205 22.97C205.22 22.21 205.25 21.29 205.09 20.21ZM211.06 13.49C210.92 13.57 210.82 13.68 210.76 13.82C210.7 13.96 210.51 13.98 210.19 13.88C209.93 13.78 209.76 13.67 209.68 13.55C209.62 13.41 209.55 13.28 209.47 13.16C209.41 13.02 209.24 12.93 208.96 12.89C208.5 12.79 208.03 12.84 207.55 13.04C207.09 13.22 206.63 13.33 206.17 13.37C205.81 13.41 205.45 13.51 205.09 13.67C204.75 13.81 204.41 13.98 204.07 14.18C204.05 14.3 204.06 14.38 204.1 14.42C204.16 14.46 204.2 14.5 204.22 14.54C204.26 14.58 204.31 14.63 204.37 14.69C204.59 14.89 204.86 15.2 205.18 15.62C205.52 16.04 205.85 16.55 206.17 17.15C206.49 17.75 206.75 18.43 206.95 19.19C207.15 19.93 207.21 20.73 207.13 21.59C207.05 22.51 206.75 23.49 206.23 24.53C205.73 25.55 204.92 26.61 203.8 27.71C203.28 28.21 202.89 28.54 202.63 28.7C202.37 28.84 202.17 28.91 202.03 28.91C201.89 28.89 201.75 28.9 201.61 28.94C201.45 28.98 201.3 28.98 201.16 28.94C201.02 28.88 200.87 28.87 200.71 28.91C200.13 28.69 199.71 28.44 199.45 28.16C199.21 27.88 198.94 27.49 198.64 26.99C198.56 26.41 198.58 25.92 198.7 25.52C198.82 25.1 198.98 24.71 199.18 24.35C199.38 23.97 199.56 23.56 199.72 23.12C199.86 23.02 199.94 22.9 199.96 22.76C199.98 22.62 200.07 22.45 200.23 22.25C200.31 22.17 200.41 22.05 200.53 21.89C200.65 21.71 200.75 21.55 200.83 21.41C201.17 20.83 201.6 20.35 202.12 19.97C202.66 19.57 203.21 19.24 203.77 18.98C203.93 18.96 204.08 18.95 204.22 18.95C204.36 18.95 204.5 18.94 204.64 18.92C204.58 18.38 204.38 17.83 204.04 17.27C203.7 16.69 203.35 16.17 202.99 15.71C202.63 15.25 202.35 14.92 202.15 14.72C202.13 14.7 202.06 14.56 201.94 14.3C201.84 14.04 201.76 13.84 201.7 13.7C201.82 13.34 202.1 13.02 202.54 12.74C203 12.44 203.49 12.2 204.01 12.02C204.53 11.82 204.96 11.68 205.3 11.6C205.4 11.58 205.64 11.54 206.02 11.48C206.42 11.4 206.82 11.32 207.22 11.24C207.62 11.16 207.86 11.11 207.94 11.09C208.1 11.05 208.24 11.04 208.36 11.06C208.5 11.06 208.61 11.08 208.69 11.12C208.85 11.18 208.92 11.19 208.9 11.15C208.88 11.09 208.94 11.06 209.08 11.06C209.2 11.06 209.34 11.07 209.5 11.09C209.68 11.09 209.87 11.14 210.07 11.24C210.27 11.32 210.48 11.49 210.7 11.75C210.88 11.97 211.01 12.11 211.09 12.17C211.19 12.23 211.24 12.36 211.24 12.56C211.22 12.64 211.2 12.76 211.18 12.92C211.16 13.06 211.12 13.25 211.06 13.49ZM213.43 28.61C212.75 28.79 212.27 28.88 211.99 28.88C211.71 28.88 211.41 28.74 211.09 28.46C210.99 28.36 210.93 28.26 210.91 28.16C210.89 28.04 210.84 27.97 210.76 27.95C210.74 27.81 210.75 27.7 210.79 27.62C210.85 27.52 210.98 27.43 211.18 27.35C211.48 27.53 211.86 27.58 212.32 27.5C212.78 27.42 213.23 27.25 213.67 26.99C214.13 26.71 214.49 26.38 214.75 26C215.15 25.52 215.46 25.07 215.68 24.65C215.9 24.21 216.02 23.82 216.04 23.48C216.04 23.28 216.01 23.14 215.95 23.06C215.91 22.96 215.81 22.81 215.65 22.61C215.29 22.73 214.96 22.87 214.66 23.03C214.38 23.19 214.15 23.36 213.97 23.54C213.37 24.04 212.9 24.45 212.56 24.77C212.24 25.09 211.96 25.41 211.72 25.73C211.5 26.05 211.22 26.48 210.88 27.02C210.72 27.22 210.57 27.37 210.43 27.47C210.31 27.57 210.18 27.62 210.04 27.62C210.1 28.02 209.96 28.26 209.62 28.34C209.18 28.24 208.86 28.11 208.66 27.95C208.46 27.77 208.4 27.43 208.48 26.93C208.56 26.65 208.64 26.32 208.72 25.94C208.8 25.54 208.89 25.21 208.99 24.95C209.47 23.67 209.89 22.53 210.25 21.53C210.63 20.53 210.96 19.82 211.24 19.4L211.9 17.69C212.24 17.71 212.5 17.78 212.68 17.9C212.86 18 213.07 18.25 213.31 18.65C213.31 18.75 213.21 19.04 213.01 19.52C212.83 19.98 212.61 20.51 212.35 21.11C212.11 21.71 211.88 22.27 211.66 22.79C211.46 23.29 211.32 23.64 211.24 23.84C211.16 24.06 211.22 24.02 211.42 23.72C211.64 23.42 212.02 23.04 212.56 22.58C212.82 22.32 213.14 22.08 213.52 21.86C213.9 21.62 214.22 21.44 214.48 21.32C214.76 21.2 214.99 21.13 215.17 21.11C215.35 21.09 215.48 21.07 215.56 21.05C216.06 21.05 216.46 21.18 216.76 21.44C217.06 21.68 217.27 21.96 217.39 22.28C217.53 22.6 217.6 22.86 217.6 23.06C217.66 23.38 217.7 23.69 217.72 23.99C217.76 24.27 217.74 24.57 217.66 24.89C217.6 25.05 217.49 25.27 217.33 25.55C217.17 25.83 216.98 26.12 216.76 26.42C216.56 26.7 216.32 26.93 216.04 27.11C215.86 27.29 215.62 27.48 215.32 27.68C215.02 27.88 214.7 28.07 214.36 28.25C214.04 28.41 213.73 28.53 213.43 28.61ZM219.67 29.09C219.31 29.05 219.01 28.94 218.77 28.76C218.55 28.56 218.39 28.27 218.29 27.89C218.29 27.55 218.33 27.24 218.41 26.96C218.51 26.66 218.59 26.37 218.65 26.09C218.75 25.63 218.89 25.17 219.07 24.71C219.25 24.25 219.41 23.79 219.55 23.33C219.67 23.05 219.77 22.78 219.85 22.52C219.93 22.26 220.01 22 220.09 21.74C220.19 21.42 220.29 21.11 220.39 20.81C220.49 20.51 220.59 20.21 220.69 19.91C220.77 19.65 220.83 19.38 220.87 19.1C220.93 18.82 220.98 18.54 221.02 18.26C221.24 18.02 221.48 17.92 221.74 17.96C222.02 18 222.36 18.23 222.76 18.65C222.86 18.89 222.91 19.11 222.91 19.31C222.91 19.49 222.86 19.68 222.76 19.88C222.68 20.06 222.57 20.33 222.43 20.69C222.31 21.05 222.18 21.41 222.04 21.77C221.92 22.11 221.83 22.37 221.77 22.55C221.73 22.77 221.62 23.13 221.44 23.63C221.28 24.13 221.11 24.65 220.93 25.19C220.75 25.71 220.62 26.13 220.54 26.45C220.42 26.75 220.33 27.04 220.27 27.32C220.21 27.6 220.15 27.95 220.09 28.37C220.13 28.55 220.1 28.7 220 28.82C219.92 28.92 219.81 29.01 219.67 29.09ZM232.166 28.34C231.926 28.3 231.736 28.19 231.596 28.01C231.476 27.81 231.306 27.63 231.086 27.47C231.086 27.25 231.136 26.9 231.236 26.42C231.356 25.92 231.496 25.43 231.656 24.95C231.816 24.45 231.946 24.09 232.046 23.87C232.126 23.35 232.256 22.85 232.436 22.37C232.636 21.89 232.796 21.42 232.916 20.96C233.016 20.56 233.106 20.18 233.186 19.82C233.286 19.46 233.386 19.11 233.486 18.77C233.586 18.51 233.636 18.33 233.636 18.23C233.636 18.11 233.656 18.02 233.696 17.96C233.756 17.88 233.906 17.78 234.146 17.66C234.366 17.74 234.566 17.79 234.746 17.81C234.946 17.81 235.126 17.76 235.286 17.66C235.306 17.64 235.456 17.64 235.736 17.66C236.036 17.66 236.366 17.66 236.726 17.66C237.086 17.66 237.356 17.65 237.536 17.63C237.816 17.61 238.086 17.64 238.346 17.72C238.606 17.8 238.886 17.84 239.186 17.84C239.566 17.98 239.916 18.14 240.236 18.32C240.556 18.5 240.806 18.72 240.986 18.98C241.186 19.22 241.276 19.53 241.256 19.91C241.216 20.21 241.196 20.52 241.196 20.84C241.196 21.16 241.116 21.46 240.956 21.74C240.936 21.94 240.836 22.27 240.656 22.73C240.476 23.17 240.296 23.64 240.116 24.14C239.956 24.62 239.856 25.02 239.816 25.34C239.796 25.48 239.736 25.62 239.636 25.76C239.556 25.88 239.526 26.02 239.546 26.18C239.566 26.38 239.536 26.63 239.456 26.93C239.396 27.21 239.296 27.43 239.156 27.59C238.976 27.79 238.756 27.87 238.496 27.83C238.236 27.77 238.006 27.65 237.806 27.47C237.626 27.27 237.546 27.05 237.566 26.81C237.566 26.57 237.576 26.28 237.596 25.94C237.636 25.58 237.666 25.27 237.686 25.01C237.826 24.87 237.896 24.74 237.896 24.62C237.916 24.48 237.936 24.34 237.956 24.2C238.136 23.78 238.316 23.25 238.496 22.61C238.696 21.95 238.856 21.32 238.976 20.72C239.096 20.12 239.116 19.69 239.036 19.43C238.716 19.43 238.296 19.45 237.776 19.49C237.256 19.51 236.776 19.54 236.336 19.58C235.916 19.6 235.686 19.61 235.646 19.61C235.566 19.63 235.496 19.68 235.436 19.76C235.376 19.82 235.346 19.88 235.346 19.94C235.266 20.44 235.126 20.93 234.926 21.41C234.726 21.87 234.576 22.35 234.476 22.85C234.456 22.99 234.386 23.23 234.266 23.57C234.146 23.89 234.006 24.25 233.846 24.65C233.706 25.03 233.576 25.41 233.456 25.79C233.336 26.15 233.276 26.44 233.276 26.66C233.196 26.8 233.136 26.96 233.096 27.14C233.056 27.32 233.036 27.55 233.036 27.83C233.016 27.99 232.936 28.1 232.796 28.16C232.656 28.22 232.446 28.28 232.166 28.34ZM245.025 28.55C244.765 28.55 244.555 28.5 244.395 28.4C244.255 28.3 244.075 28.16 243.855 27.98C243.475 27.58 243.205 27.2 243.045 26.84C242.885 26.46 242.835 26.1 242.895 25.76C242.955 25.6 242.975 25.45 242.955 25.31C242.955 25.15 242.955 25.07 242.955 25.07C242.855 24.97 242.825 24.91 242.865 24.89C242.905 24.85 242.945 24.79 242.985 24.71C243.105 24.71 243.145 24.6 243.105 24.38C243.065 24.22 243.145 23.87 243.345 23.33C243.545 22.79 243.795 22.28 244.095 21.8C244.215 21.6 244.395 21.34 244.635 21.02C244.875 20.68 245.135 20.35 245.415 20.03C245.715 19.69 245.985 19.42 246.225 19.22C246.725 18.8 247.165 18.49 247.545 18.29C247.925 18.09 248.335 17.94 248.775 17.84C249.215 17.74 249.515 17.69 249.675 17.69C249.855 17.69 250.095 17.85 250.395 18.17C250.855 18.37 251.185 18.61 251.385 18.89C251.605 19.17 251.745 19.58 251.805 20.12C251.865 20.72 251.815 21.41 251.655 22.19C251.515 22.95 251.045 23.9 250.245 25.04C249.745 25.76 249.285 26.3 248.865 26.66C248.445 27 247.945 27.34 247.365 27.68C246.945 27.96 246.565 28.17 246.225 28.31C245.885 28.43 245.485 28.51 245.025 28.55ZM247.905 25.37C248.385 24.83 248.765 24.32 249.045 23.84C249.345 23.36 249.625 22.75 249.885 22.01C249.965 21.79 250.015 21.52 250.035 21.2C250.055 20.86 250.045 20.55 250.005 20.27C249.985 19.97 249.915 19.8 249.795 19.76C249.555 19.62 249.265 19.58 248.925 19.64C248.585 19.68 248.215 19.87 247.815 20.21C247.195 20.73 246.655 21.38 246.195 22.16C245.735 22.92 245.285 23.79 244.845 24.77C244.545 25.49 244.475 26.07 244.635 26.51C244.815 26.93 245.185 27.08 245.745 26.96C246.325 26.82 247.045 26.29 247.905 25.37ZM256.681 28.31C256.241 28.31 255.911 28.29 255.691 28.25C255.471 28.21 255.301 28.15 255.181 28.07C255.061 27.99 254.921 27.88 254.761 27.74C254.681 27.58 254.581 27.41 254.461 27.23C254.341 27.05 254.241 26.92 254.161 26.84C254.081 26.54 254.041 26.15 254.041 25.67C254.061 25.19 254.121 24.67 254.221 24.11C254.341 23.55 254.501 23.03 254.701 22.55C254.781 22.39 254.851 22.23 254.911 22.07C254.971 21.91 255.001 21.83 255.001 21.83C255.001 21.73 255.121 21.49 255.361 21.11C255.621 20.73 255.901 20.33 256.201 19.91C256.521 19.49 256.781 19.19 256.981 19.01C257.121 18.85 257.331 18.68 257.611 18.5C257.911 18.32 258.171 18.19 258.391 18.11C258.611 18.03 258.831 17.96 259.051 17.9C259.291 17.84 259.561 17.81 259.861 17.81C260.141 17.81 260.401 17.87 260.641 17.99C260.881 18.11 261.111 18.32 261.331 18.62C261.691 18.98 261.891 19.34 261.931 19.7C261.991 20.04 261.981 20.39 261.901 20.75C261.801 21.15 261.671 21.46 261.511 21.68C261.351 21.88 261.171 21.97 260.971 21.95C260.771 21.93 260.541 21.78 260.281 21.5C260.201 21.34 260.161 21.21 260.161 21.11C260.161 20.99 260.201 20.82 260.281 20.6C260.361 20.32 260.361 20.03 260.281 19.73C260.201 19.43 260.071 19.28 259.891 19.28C259.631 19.28 259.341 19.4 259.021 19.64C258.721 19.86 258.411 20.14 258.091 20.48C257.951 20.64 257.751 20.89 257.491 21.23C257.251 21.55 257.011 21.91 256.771 22.31C256.531 22.69 256.331 23.06 256.171 23.42C255.951 24.08 255.771 24.61 255.631 25.01C255.511 25.41 255.451 25.61 255.451 25.61C255.451 25.69 255.471 25.77 255.511 25.85C255.571 25.91 255.601 25.98 255.601 26.06C255.601 26.3 255.741 26.49 256.021 26.63C256.241 26.77 256.501 26.85 256.801 26.87C257.101 26.87 257.471 26.77 257.911 26.57C258.231 26.41 258.531 26.2 258.811 25.94C259.111 25.68 259.421 25.45 259.741 25.25C259.961 25.11 260.131 24.99 260.251 24.89C260.391 24.79 260.461 24.78 260.461 24.86C260.461 24.94 260.491 24.98 260.551 24.98C260.611 24.98 260.681 24.94 260.761 24.86C260.881 24.7 261.011 24.6 261.151 24.56C261.291 24.5 261.411 24.48 261.511 24.5C261.631 24.5 261.691 24.53 261.691 24.59C261.651 24.77 261.691 24.92 261.811 25.04C261.811 25.12 261.781 25.23 261.721 25.37C261.681 25.49 261.621 25.59 261.541 25.67C261.441 25.81 261.291 25.97 261.091 26.15C260.911 26.33 260.741 26.49 260.581 26.63C260.421 26.75 260.341 26.81 260.341 26.81C260.261 26.79 260.181 26.81 260.101 26.87C260.041 26.93 259.971 27 259.891 27.08C259.731 27.22 259.581 27.33 259.441 27.41C259.301 27.47 259.191 27.5 259.111 27.5C258.971 27.58 258.861 27.63 258.781 27.65C258.721 27.67 258.691 27.72 258.691 27.8C258.491 28 258.241 28.14 257.941 28.22C257.661 28.28 257.241 28.31 256.681 28.31ZM275.959 28.22C275.899 28.18 275.769 28.12 275.569 28.04C275.389 27.94 275.279 27.88 275.239 27.86C275.099 27.74 275.019 27.59 274.999 27.41C274.979 27.23 274.969 27.03 274.969 26.81C274.989 26.59 274.969 26.36 274.909 26.12C274.969 25.84 275.029 25.52 275.089 25.16C275.149 24.8 275.249 24.51 275.389 24.29C275.469 23.95 275.589 23.55 275.749 23.09C275.929 22.61 276.089 22.14 276.229 21.68C276.389 21.2 276.489 20.79 276.529 20.45C276.209 20.65 275.929 20.87 275.689 21.11C275.449 21.35 275.249 21.59 275.089 21.83C275.009 21.95 274.919 22.05 274.819 22.13C274.719 22.19 274.619 22.27 274.519 22.37C274.279 22.63 274.049 22.9 273.829 23.18C273.609 23.46 273.389 23.75 273.169 24.05C272.809 24.55 272.399 25.01 271.939 25.43C271.479 25.85 271.039 26.27 270.619 26.69C270.459 26.87 270.279 26.99 270.079 27.05C269.899 27.09 269.719 27.07 269.539 26.99C269.299 26.89 269.099 26.77 268.939 26.63C268.799 26.49 268.649 26.29 268.489 26.03C268.469 25.63 268.529 25.17 268.669 24.65C268.829 24.13 269.009 23.6 269.209 23.06C269.429 22.52 269.619 22.02 269.779 21.56C269.939 21.08 270.019 20.7 270.019 20.42C269.999 20.4 269.969 20.39 269.929 20.39C269.909 20.39 269.879 20.41 269.839 20.45C268.979 21.19 268.239 21.97 267.619 22.79C267.019 23.61 266.399 24.59 265.759 25.73C265.599 26.03 265.439 26.41 265.279 26.87C265.139 27.31 264.929 27.64 264.649 27.86C264.629 27.86 264.609 27.86 264.589 27.86C264.589 27.84 264.579 27.83 264.559 27.83C264.539 27.79 264.509 27.79 264.469 27.83C264.429 27.87 264.369 27.9 264.289 27.92C264.189 27.92 264.089 27.87 263.989 27.77C263.849 27.63 263.699 27.49 263.539 27.35C263.399 27.21 263.299 27.04 263.239 26.84C263.279 26.68 263.329 26.54 263.389 26.42C263.449 26.28 263.559 26.12 263.719 25.94C263.779 25.74 263.859 25.56 263.959 25.4C264.079 25.24 264.179 25.06 264.259 24.86C264.459 24.34 264.779 23.74 265.219 23.06C265.659 22.38 266.169 21.71 266.749 21.05C267.329 20.39 267.929 19.81 268.549 19.31C269.169 18.81 269.749 18.47 270.289 18.29C270.309 18.29 270.319 18.29 270.319 18.29C270.339 18.29 270.359 18.29 270.379 18.29C270.579 18.35 270.759 18.42 270.919 18.5C271.079 18.56 271.249 18.63 271.429 18.71C271.509 18.81 271.599 18.94 271.699 19.1C271.799 19.24 271.869 19.39 271.909 19.55C271.989 19.79 271.979 20.13 271.879 20.57C271.779 21.01 271.659 21.45 271.519 21.89C271.379 22.33 271.259 22.68 271.159 22.94C271.139 23.02 271.069 23.19 270.949 23.45C270.829 23.71 270.759 23.91 270.739 24.05C270.739 24.07 270.739 24.09 270.739 24.11C270.739 24.13 270.749 24.15 270.769 24.17C271.089 23.87 271.399 23.56 271.699 23.24C272.019 22.92 272.309 22.6 272.569 22.28C273.189 21.56 273.819 20.83 274.459 20.09C275.119 19.33 275.859 18.71 276.679 18.23C276.879 18.13 277.109 18.15 277.369 18.29C277.649 18.43 277.859 18.58 277.999 18.74C278.219 18.92 278.339 19.16 278.359 19.46C278.399 19.86 278.349 20.41 278.209 21.11C278.069 21.79 277.889 22.47 277.669 23.15C277.469 23.83 277.279 24.37 277.099 24.77C277.059 24.87 277.029 24.95 277.009 25.01C276.989 25.07 276.969 25.16 276.949 25.28C276.929 25.42 276.889 25.56 276.829 25.7C276.789 25.84 276.749 25.97 276.709 26.09C276.649 26.35 276.639 26.61 276.679 26.87C276.739 27.13 276.779 27.39 276.799 27.65C276.799 27.67 276.769 27.7 276.709 27.74C276.589 27.82 276.469 27.9 276.349 27.98C276.249 28.04 276.139 28.12 276.019 28.22C275.999 28.22 275.989 28.22 275.989 28.22C275.989 28.22 275.979 28.22 275.959 28.22ZM282.843 27.86C282.423 27.94 282.153 27.97 282.033 27.95C281.933 27.91 281.773 27.79 281.553 27.59C281.233 27.43 280.963 27.23 280.743 26.99C280.543 26.75 280.393 26.5 280.293 26.24C280.213 25.96 280.183 25.73 280.203 25.55C280.263 24.85 280.433 24.1 280.713 23.3C280.993 22.5 281.333 21.73 281.733 20.99C282.133 20.25 282.563 19.62 283.023 19.1C283.503 18.56 283.963 18.21 284.403 18.05C284.803 17.89 285.183 17.83 285.543 17.87C285.903 17.91 286.163 18.1 286.323 18.44C286.623 19.02 286.553 19.39 286.113 19.55C286.053 19.55 285.983 19.58 285.903 19.64C285.823 19.68 285.783 19.74 285.783 19.82C285.863 19.86 286.083 19.87 286.443 19.85C286.803 19.81 287.163 19.75 287.523 19.67C287.903 19.57 288.153 19.47 288.273 19.37C288.393 19.31 288.483 19.28 288.543 19.28C288.603 19.28 288.753 19.3 288.993 19.34C289.333 19.44 289.503 19.56 289.503 19.7C289.503 19.78 289.533 19.86 289.593 19.94C289.653 20 289.723 20.03 289.803 20.03C289.943 20.05 289.923 20.14 289.743 20.3C289.583 20.46 289.303 20.68 288.903 20.96C288.523 21.2 288.283 21.36 288.183 21.44C288.103 21.5 288.093 21.64 288.153 21.86C288.313 22.24 288.323 22.68 288.183 23.18C288.043 23.68 287.793 24.19 287.433 24.71C287.073 25.23 286.633 25.72 286.113 26.18C285.613 26.62 285.073 27 284.493 27.32C283.933 27.62 283.383 27.8 282.843 27.86ZM282.333 26.54C282.413 26.54 282.553 26.5 282.753 26.42C282.953 26.32 283.113 26.24 283.233 26.18C283.313 26.1 283.413 26.01 283.533 25.91C283.673 25.79 283.783 25.72 283.863 25.7C283.943 25.7 284.043 25.67 284.163 25.61C284.283 25.53 284.453 25.38 284.673 25.16C284.893 24.92 285.183 24.57 285.543 24.11C285.943 23.67 286.253 23.27 286.473 22.91C286.693 22.53 286.753 22.18 286.653 21.86C286.633 21.78 286.573 21.73 286.473 21.71C286.393 21.69 286.283 21.64 286.143 21.56C285.943 21.56 285.753 21.51 285.573 21.41C285.413 21.29 285.223 21.14 285.003 20.96L284.523 20.36L284.013 20.87C283.693 21.19 283.353 21.67 282.993 22.31C282.653 22.93 282.363 23.57 282.123 24.23C281.883 24.87 281.743 25.38 281.703 25.76C281.683 26.06 281.733 26.26 281.853 26.36C281.973 26.46 282.133 26.52 282.333 26.54ZM291.23 27.53C291.01 27.39 290.81 27.21 290.63 26.99C290.45 26.75 290.36 26.45 290.36 26.09C290.36 25.89 290.4 25.55 290.48 25.07C290.56 24.59 290.67 24.05 290.81 23.45C290.95 22.85 291.09 22.29 291.23 21.77C291.43 21.41 291.6 21.05 291.74 20.69C291.88 20.33 291.95 20.11 291.95 20.03C291.99 19.79 292.04 19.51 292.1 19.19C292.18 18.87 292.26 18.58 292.34 18.32C292.42 18.06 292.48 17.91 292.52 17.87C292.62 17.77 292.74 17.71 292.88 17.69C293.02 17.65 293.16 17.67 293.3 17.75C293.46 17.81 293.58 17.94 293.66 18.14C293.88 18.38 293.99 18.67 293.99 19.01C293.99 19.33 293.88 19.81 293.66 20.45C293.48 20.85 293.3 21.32 293.12 21.86C292.94 22.4 292.78 22.9 292.64 23.36C292.52 23.8 292.45 24.1 292.43 24.26L291.83 24.44C292.17 24.12 292.49 23.79 292.79 23.45C293.09 23.09 293.31 22.81 293.45 22.61C293.79 22.15 294.08 21.77 294.32 21.47C294.58 21.15 294.91 20.77 295.31 20.33C295.71 19.87 296.1 19.59 296.48 19.49C296.88 19.37 297.19 19.31 297.41 19.31C297.85 19.39 298.2 19.62 298.46 20C298.74 20.36 298.92 20.9 299 21.62C299 21.9 298.97 22.23 298.91 22.61C298.87 22.99 298.85 23.18 298.85 23.18C298.85 23.18 299.01 22.97 299.33 22.55C299.67 22.13 300.12 21.67 300.68 21.17C301.06 20.89 301.43 20.73 301.79 20.69C302.15 20.63 302.47 20.75 302.75 21.05C303.27 21.33 303.61 21.76 303.77 22.34C303.93 22.9 303.97 23.62 303.89 24.5C303.83 25.02 303.82 25.41 303.86 25.67C303.9 25.91 303.96 26.15 304.04 26.39C304.2 26.47 304.23 26.64 304.13 26.9C304.03 27.14 303.91 27.26 303.77 27.26C303.57 27.26 303.34 27.22 303.08 27.14C302.84 27.06 302.62 26.93 302.42 26.75C302.24 26.55 302.15 26.28 302.15 25.94V24.08C302.15 23.64 302.13 23.28 302.09 23C302.07 22.72 302.02 22.55 301.94 22.49C301.72 22.37 301.4 22.5 300.98 22.88C300.56 23.26 300.11 23.77 299.63 24.41C299.15 25.05 298.7 25.71 298.28 26.39C297.9 27.01 297.66 27.37 297.56 27.47C297.48 27.55 297.33 27.52 297.11 27.38C296.67 27.24 296.39 27.05 296.27 26.81C296.17 26.55 296.16 26.26 296.24 25.94C296.34 25.6 296.46 25.14 296.6 24.56C296.76 23.98 296.91 23.42 297.05 22.88C297.19 22.32 297.28 21.92 297.32 21.68C297.24 21.52 297.1 21.47 296.9 21.53C296.72 21.57 296.53 21.66 296.33 21.8C296.09 21.96 295.8 22.26 295.46 22.7C295.12 23.14 294.77 23.65 294.41 24.23C294.17 24.61 293.92 24.99 293.66 25.37C293.4 25.73 293.16 26.05 292.94 26.33C292.72 26.61 292.53 26.82 292.37 26.96C292.09 27.4 291.9 27.64 291.8 27.68C291.7 27.72 291.51 27.67 291.23 27.53ZM305.653 34.25C305.413 34.41 305.163 34.4 304.903 34.22C304.663 34.04 304.483 33.77 304.363 33.41C304.243 33.05 304.253 32.67 304.393 32.27C304.433 32.15 304.493 31.95 304.573 31.67C304.653 31.41 304.703 31.18 304.723 30.98C304.743 30.84 304.803 30.6 304.903 30.26C305.003 29.94 305.113 29.62 305.233 29.3C305.373 28.98 305.483 28.75 305.563 28.61C305.683 28.41 305.763 28.18 305.803 27.92C305.863 27.66 305.893 27.46 305.893 27.32C305.933 27.18 305.983 27.02 306.043 26.84C306.123 26.66 306.203 26.52 306.283 26.42C306.323 26.26 306.383 26.09 306.463 25.91C306.543 25.71 306.633 25.54 306.733 25.4C306.773 25.26 306.803 25.09 306.823 24.89C306.863 24.69 306.923 24.58 307.003 24.56C307.023 24.48 307.033 24.4 307.033 24.32C307.053 24.24 307.093 24.13 307.153 23.99C307.193 23.77 307.283 23.45 307.423 23.03C307.563 22.61 307.733 22.15 307.933 21.65C308.153 21.07 308.253 20.52 308.233 20C308.233 19.46 308.083 19.13 307.783 19.01C307.623 18.93 307.523 18.82 307.483 18.68C307.443 18.52 307.463 18.36 307.543 18.2C307.623 18.04 307.743 17.93 307.903 17.87C308.083 17.79 308.273 17.76 308.473 17.78C308.693 17.8 308.883 17.84 309.043 17.9C309.203 17.94 309.273 17.98 309.253 18.02C309.253 18.12 309.303 18.18 309.403 18.2C309.443 18.14 309.523 18.21 309.643 18.41C309.783 18.59 309.913 18.8 310.033 19.04C310.153 19.28 310.213 19.45 310.213 19.55C310.173 19.63 310.153 19.68 310.153 19.7C310.153 19.7 310.193 19.7 310.273 19.7C310.273 19.7 310.383 19.65 310.603 19.55C310.823 19.43 311.053 19.3 311.293 19.16C311.553 19 311.723 18.88 311.803 18.8C311.803 18.8 311.853 18.78 311.953 18.74C312.073 18.68 312.173 18.61 312.253 18.53C312.653 18.37 313.083 18.34 313.543 18.44C314.023 18.54 314.403 18.72 314.683 18.98C315.083 19.48 315.283 19.96 315.283 20.42C315.303 20.88 315.173 21.46 314.893 22.16C314.853 22.26 314.763 22.43 314.623 22.67C314.503 22.89 314.383 23.1 314.263 23.3C314.143 23.48 314.083 23.57 314.083 23.57C313.623 24.29 313.083 24.89 312.463 25.37C311.843 25.85 311.213 26.27 310.573 26.63C310.373 26.77 310.163 26.88 309.943 26.96C309.743 27.02 309.563 27.06 309.403 27.08C309.243 27.08 309.133 27.06 309.073 27.02C308.853 26.86 308.653 26.52 308.473 26C308.373 26.26 308.273 26.52 308.173 26.78C308.093 27.02 308.043 27.18 308.023 27.26C308.003 27.4 307.983 27.52 307.963 27.62C307.943 27.7 307.893 27.77 307.813 27.83C307.813 27.83 307.803 27.87 307.783 27.95C307.763 28.03 307.693 28.15 307.573 28.31C307.373 28.89 307.193 29.39 307.033 29.81C306.873 30.25 306.743 30.62 306.643 30.92C306.543 31.24 306.463 31.52 306.403 31.76C306.363 32.3 306.253 32.83 306.073 33.35C305.893 33.89 305.753 34.19 305.653 34.25ZM309.223 25.7C309.303 25.66 309.473 25.55 309.733 25.37C310.013 25.17 310.323 24.94 310.663 24.68C311.003 24.4 311.313 24.14 311.593 23.9C311.893 23.66 312.093 23.48 312.193 23.36C312.353 23.18 312.503 22.99 312.643 22.79C312.783 22.57 312.893 22.33 312.973 22.07C313.033 21.91 313.103 21.73 313.183 21.53C313.263 21.33 313.333 21.14 313.393 20.96C313.473 20.8 313.503 20.64 313.483 20.48C313.483 20.3 313.423 20.15 313.303 20.03C313.223 20.01 312.983 20.07 312.583 20.21C312.183 20.33 311.743 20.54 311.263 20.84C310.783 21.12 310.363 21.49 310.003 21.95C309.583 22.49 309.273 23.05 309.073 23.63C308.893 24.21 308.813 24.7 308.833 25.1C308.873 25.5 309.003 25.7 309.223 25.7ZM318.971 28.28C318.191 27.96 317.681 27.52 317.441 26.96C317.221 26.38 317.181 25.49 317.321 24.29C317.361 23.67 317.381 23.26 317.381 23.06C317.381 22.86 317.271 22.66 317.051 22.46C316.991 22.38 316.881 22.27 316.721 22.13C316.581 21.99 316.521 21.87 316.541 21.77C316.521 21.63 316.531 21.48 316.571 21.32C316.611 21.14 316.671 21.05 316.751 21.05C316.831 21.05 316.911 21.03 316.991 20.99C317.091 20.95 317.181 20.95 317.261 20.99C317.341 20.99 317.431 21 317.531 21.02C317.631 21.04 317.681 21.09 317.681 21.17C317.761 21.31 317.891 21.33 318.071 21.23C318.251 21.11 318.441 20.85 318.641 20.45C318.841 20.13 319.101 19.81 319.421 19.49C319.761 19.17 320.091 18.88 320.411 18.62C320.751 18.34 321.031 18.14 321.251 18.02C321.351 17.98 321.501 17.93 321.701 17.87C321.901 17.81 322.111 17.76 322.331 17.72C322.571 17.68 322.771 17.67 322.931 17.69C323.291 17.71 323.591 17.81 323.831 17.99C324.091 18.17 324.331 18.38 324.551 18.62C324.811 18.8 324.971 19.04 325.031 19.34C325.111 19.64 325.131 19.96 325.091 20.3C325.051 20.64 324.961 20.95 324.821 21.23C324.761 21.43 324.591 21.67 324.311 21.95C324.031 22.23 323.711 22.5 323.351 22.76C322.991 23.02 322.661 23.21 322.361 23.33C322.101 23.39 321.761 23.44 321.341 23.48C320.941 23.52 320.561 23.54 320.201 23.54C319.861 23.52 319.631 23.48 319.511 23.42C319.371 23.34 319.261 23.45 319.181 23.75C319.101 24.05 319.041 24.48 319.001 25.04C318.961 25.48 318.961 25.8 319.001 26C319.041 26.2 319.081 26.34 319.121 26.42C319.261 26.56 319.451 26.74 319.691 26.96C319.951 27.16 320.311 27.19 320.771 27.05C321.151 26.95 321.521 26.69 321.881 26.27C322.261 25.85 322.611 25.51 322.931 25.25C323.011 25.11 323.141 25.03 323.321 25.01C323.521 24.97 323.731 24.98 323.951 25.04C324.171 25.18 324.261 25.35 324.221 25.55C324.201 25.73 324.101 26.01 323.921 26.39C323.861 26.53 323.721 26.71 323.501 26.93C323.301 27.13 323.071 27.34 322.811 27.56C322.571 27.76 322.351 27.92 322.151 28.04C321.551 28.36 320.991 28.53 320.471 28.55C319.951 28.55 319.451 28.46 318.971 28.28ZM320.741 22.19C321.181 22.09 321.531 22.02 321.791 21.98C322.051 21.94 322.301 21.83 322.541 21.65C322.781 21.45 323.081 21.08 323.441 20.54C323.521 20.32 323.541 20.1 323.501 19.88C323.481 19.66 323.431 19.51 323.351 19.43C323.171 19.23 322.951 19.17 322.691 19.25C322.451 19.31 322.221 19.42 322.001 19.58C321.861 19.64 321.651 19.79 321.371 20.03C321.111 20.25 320.851 20.51 320.591 20.81C320.331 21.09 320.121 21.35 319.961 21.59C319.801 21.83 319.761 21.97 319.841 22.01C319.801 22.09 319.911 22.14 320.171 22.16C320.451 22.18 320.641 22.19 320.741 22.19ZM328.037 27.53C327.817 27.39 327.617 27.21 327.437 26.99C327.257 26.75 327.167 26.45 327.167 26.09C327.167 25.89 327.207 25.55 327.287 25.07C327.367 24.59 327.477 24.05 327.617 23.45C327.757 22.85 327.897 22.29 328.037 21.77C328.237 21.41 328.407 21.05 328.547 20.69C328.687 20.33 328.757 20.11 328.757 20.03C328.797 19.79 328.847 19.51 328.907 19.19C328.987 18.87 329.067 18.58 329.147 18.32C329.227 18.06 329.287 17.91 329.327 17.87C329.427 17.77 329.547 17.71 329.687 17.69C329.827 17.65 329.967 17.67 330.107 17.75C330.267 17.81 330.387 17.94 330.467 18.14C330.687 18.38 330.797 18.67 330.797 19.01C330.797 19.33 330.687 19.81 330.467 20.45C330.287 20.85 330.107 21.32 329.927 21.86C329.747 22.4 329.587 22.9 329.447 23.36C329.327 23.8 329.257 24.1 329.237 24.26L328.637 24.44C328.977 24.12 329.297 23.79 329.597 23.45C329.897 23.09 330.117 22.81 330.257 22.61C330.597 22.15 330.887 21.77 331.127 21.47C331.387 21.15 331.717 20.77 332.117 20.33C332.517 19.87 332.907 19.59 333.287 19.49C333.687 19.37 333.997 19.31 334.217 19.31C334.657 19.39 335.007 19.62 335.267 20C335.547 20.36 335.727 20.9 335.807 21.62C335.807 21.9 335.777 22.23 335.717 22.61C335.677 22.99 335.657 23.18 335.657 23.18C335.657 23.18 335.817 22.97 336.137 22.55C336.477 22.13 336.927 21.67 337.487 21.17C337.867 20.89 338.237 20.73 338.597 20.69C338.957 20.63 339.277 20.75 339.557 21.05C340.077 21.33 340.417 21.76 340.577 22.34C340.737 22.9 340.777 23.62 340.697 24.5C340.637 25.02 340.627 25.41 340.667 25.67C340.707 25.91 340.767 26.15 340.847 26.39C341.007 26.47 341.037 26.64 340.937 26.9C340.837 27.14 340.717 27.26 340.577 27.26C340.377 27.26 340.147 27.22 339.887 27.14C339.647 27.06 339.427 26.93 339.227 26.75C339.047 26.55 338.957 26.28 338.957 25.94V24.08C338.957 23.64 338.937 23.28 338.897 23C338.877 22.72 338.827 22.55 338.747 22.49C338.527 22.37 338.207 22.5 337.787 22.88C337.367 23.26 336.917 23.77 336.437 24.41C335.957 25.05 335.507 25.71 335.087 26.39C334.707 27.01 334.467 27.37 334.367 27.47C334.287 27.55 334.137 27.52 333.917 27.38C333.477 27.24 333.197 27.05 333.077 26.81C332.977 26.55 332.967 26.26 333.047 25.94C333.147 25.6 333.267 25.14 333.407 24.56C333.567 23.98 333.717 23.42 333.857 22.88C333.997 22.32 334.087 21.92 334.127 21.68C334.047 21.52 333.907 21.47 333.707 21.53C333.527 21.57 333.337 21.66 333.137 21.8C332.897 21.96 332.607 22.26 332.267 22.7C331.927 23.14 331.577 23.65 331.217 24.23C330.977 24.61 330.727 24.99 330.467 25.37C330.207 25.73 329.967 26.05 329.747 26.33C329.527 26.61 329.337 26.82 329.177 26.96C328.897 27.4 328.707 27.64 328.607 27.68C328.507 27.72 328.317 27.67 328.037 27.53ZM343.324 26.45C343.304 26.05 343.354 25.58 343.474 25.04C343.614 24.5 343.784 23.97 343.984 23.45C344.184 22.93 344.364 22.51 344.524 22.19C344.544 21.95 344.614 21.74 344.734 21.56C344.874 21.38 344.984 21.18 345.064 20.96C345.124 20.78 345.264 20.49 345.484 20.09C345.704 19.67 345.944 19.25 346.204 18.83C346.464 18.41 346.674 18.11 346.834 17.93C346.874 17.69 346.964 17.49 347.104 17.33C347.244 17.15 347.374 16.97 347.494 16.79C347.654 16.87 347.784 16.93 347.884 16.97C347.984 17.01 348.104 17.11 348.244 17.27C348.344 17.41 348.454 17.54 348.574 17.66C348.714 17.76 348.814 17.92 348.874 18.14C348.874 18.32 348.804 18.5 348.664 18.68C348.544 18.84 348.424 19 348.304 19.16C348.104 19.4 347.954 19.59 347.854 19.73C347.774 19.85 347.674 20 347.554 20.18C347.454 20.34 347.284 20.6 347.044 20.96C347.144 21 347.254 21.05 347.374 21.11C347.494 21.15 347.604 21.17 347.704 21.17C347.884 21.15 348.054 21.17 348.214 21.23C348.374 21.29 348.534 21.36 348.694 21.44C348.854 21.5 349.014 21.55 349.174 21.59C349.414 21.67 349.664 21.83 349.924 22.07C350.204 22.31 350.454 22.57 350.674 22.85C350.894 23.13 351.034 23.36 351.094 23.54C351.154 23.64 351.234 23.83 351.334 24.11C351.454 24.37 351.474 24.61 351.394 24.83C351.374 24.91 351.354 25 351.334 25.1C351.314 25.2 351.304 25.3 351.304 25.4C351.004 25.82 350.764 26.15 350.584 26.39C350.404 26.63 350.094 26.89 349.654 27.17C348.994 27.55 348.334 27.84 347.674 28.04C347.034 28.24 346.384 28.33 345.724 28.31C345.624 28.31 345.524 28.34 345.424 28.4C345.344 28.44 345.254 28.42 345.154 28.34C344.754 28.34 344.454 28.23 344.254 28.01C344.054 27.79 343.844 27.54 343.624 27.26C343.464 27.04 343.364 26.77 343.324 26.45ZM345.004 26.54C345.364 26.58 345.694 26.56 345.994 26.48C346.314 26.4 346.624 26.33 346.924 26.27C347.264 26.21 347.624 26.08 348.004 25.88C348.384 25.66 348.724 25.4 349.024 25.1C349.344 24.78 349.554 24.46 349.654 24.14C349.714 23.98 349.724 23.8 349.684 23.6C349.644 23.4 349.554 23.26 349.414 23.18C349.214 23.04 349.014 22.9 348.814 22.76C348.614 22.62 348.374 22.56 348.094 22.58C348.034 22.6 347.964 22.6 347.884 22.58C347.824 22.54 347.764 22.51 347.704 22.49C347.544 22.45 347.384 22.43 347.224 22.43C347.084 22.43 346.934 22.45 346.774 22.49C346.594 22.55 346.424 22.61 346.264 22.67C346.104 22.73 346.034 22.89 346.054 23.15C346.054 23.19 346.004 23.26 345.904 23.36C345.864 23.4 345.774 23.6 345.634 23.96C345.514 24.32 345.394 24.7 345.274 25.1C345.154 25.5 345.064 25.79 345.004 25.97C344.984 26.05 344.974 26.14 344.974 26.24C344.994 26.32 345.004 26.42 345.004 26.54ZM363.615 28.31C363.175 28.31 362.845 28.29 362.625 28.25C362.405 28.21 362.235 28.15 362.115 28.07C361.995 27.99 361.855 27.88 361.695 27.74C361.615 27.58 361.515 27.41 361.395 27.23C361.275 27.05 361.175 26.92 361.095 26.84C361.015 26.54 360.975 26.15 360.975 25.67C360.995 25.19 361.055 24.67 361.155 24.11C361.275 23.55 361.435 23.03 361.635 22.55C361.715 22.39 361.785 22.23 361.845 22.07C361.905 21.91 361.935 21.83 361.935 21.83C361.935 21.73 362.055 21.49 362.295 21.11C362.555 20.73 362.835 20.33 363.135 19.91C363.455 19.49 363.715 19.19 363.915 19.01C364.055 18.85 364.265 18.68 364.545 18.5C364.845 18.32 365.105 18.19 365.325 18.11C365.545 18.03 365.765 17.96 365.985 17.9C366.225 17.84 366.495 17.81 366.795 17.81C367.075 17.81 367.335 17.87 367.575 17.99C367.815 18.11 368.045 18.32 368.265 18.62C368.625 18.98 368.825 19.34 368.865 19.7C368.925 20.04 368.915 20.39 368.835 20.75C368.735 21.15 368.605 21.46 368.445 21.68C368.285 21.88 368.105 21.97 367.905 21.95C367.705 21.93 367.475 21.78 367.215 21.5C367.135 21.34 367.095 21.21 367.095 21.11C367.095 20.99 367.135 20.82 367.215 20.6C367.295 20.32 367.295 20.03 367.215 19.73C367.135 19.43 367.005 19.28 366.825 19.28C366.565 19.28 366.275 19.4 365.955 19.64C365.655 19.86 365.345 20.14 365.025 20.48C364.885 20.64 364.685 20.89 364.425 21.23C364.185 21.55 363.945 21.91 363.705 22.31C363.465 22.69 363.265 23.06 363.105 23.42C362.885 24.08 362.705 24.61 362.565 25.01C362.445 25.41 362.385 25.61 362.385 25.61C362.385 25.69 362.405 25.77 362.445 25.85C362.505 25.91 362.535 25.98 362.535 26.06C362.535 26.3 362.675 26.49 362.955 26.63C363.175 26.77 363.435 26.85 363.735 26.87C364.035 26.87 364.405 26.77 364.845 26.57C365.165 26.41 365.465 26.2 365.745 25.94C366.045 25.68 366.355 25.45 366.675 25.25C366.895 25.11 367.065 24.99 367.185 24.89C367.325 24.79 367.395 24.78 367.395 24.86C367.395 24.94 367.425 24.98 367.485 24.98C367.545 24.98 367.615 24.94 367.695 24.86C367.815 24.7 367.945 24.6 368.085 24.56C368.225 24.5 368.345 24.48 368.445 24.5C368.565 24.5 368.625 24.53 368.625 24.59C368.585 24.77 368.625 24.92 368.745 25.04C368.745 25.12 368.715 25.23 368.655 25.37C368.615 25.49 368.555 25.59 368.475 25.67C368.375 25.81 368.225 25.97 368.025 26.15C367.845 26.33 367.675 26.49 367.515 26.63C367.355 26.75 367.275 26.81 367.275 26.81C367.195 26.79 367.115 26.81 367.035 26.87C366.975 26.93 366.905 27 366.825 27.08C366.665 27.22 366.515 27.33 366.375 27.41C366.235 27.47 366.125 27.5 366.045 27.5C365.905 27.58 365.795 27.63 365.715 27.65C365.655 27.67 365.625 27.72 365.625 27.8C365.425 28 365.175 28.14 364.875 28.22C364.595 28.28 364.175 28.31 363.615 28.31ZM371.192 27.92C371.112 27.76 371.012 27.64 370.892 27.56C370.772 27.46 370.712 27.37 370.712 27.29C370.712 27.21 370.702 27.13 370.682 27.05C370.682 26.95 370.642 26.86 370.562 26.78C370.462 26.66 370.472 26.39 370.592 25.97C370.712 25.53 370.912 25 371.192 24.38C371.472 23.74 371.802 23.07 372.182 22.37C372.342 22.21 372.502 22 372.662 21.74C372.822 21.48 372.942 21.31 373.022 21.23C373.022 21.15 373.052 21.08 373.112 21.02C373.172 20.94 373.242 20.9 373.322 20.9V20.72C373.322 20.62 373.412 20.45 373.592 20.21C373.792 19.97 374.032 19.71 374.312 19.43C374.592 19.13 374.882 18.85 375.182 18.59C375.482 18.31 375.732 18.11 375.932 17.99C376.352 17.71 376.782 17.54 377.222 17.48C377.682 17.42 378.072 17.52 378.392 17.78C378.452 17.84 378.552 17.94 378.692 18.08C378.832 18.22 378.992 18.38 379.172 18.56C379.372 18.72 379.572 18.89 379.772 19.07L380.882 20.06L380.342 21.56C380.082 22.36 380.012 23.06 380.132 23.66C380.272 24.26 380.472 24.78 380.732 25.22C380.832 25.44 381.032 25.65 381.332 25.85C381.652 26.05 381.952 26.17 382.232 26.21C382.392 26.23 382.542 26.29 382.682 26.39C382.822 26.49 382.892 26.65 382.892 26.87C382.892 27.07 382.852 27.23 382.772 27.35C382.692 27.47 382.552 27.55 382.352 27.59C381.692 27.67 381.072 27.51 380.492 27.11C379.932 26.71 379.412 26.05 378.932 25.13C378.852 25.01 378.742 24.79 378.602 24.47C378.482 24.13 378.412 23.91 378.392 23.81C378.312 23.91 378.162 24.1 377.942 24.38C377.722 24.64 377.552 24.83 377.432 24.95C376.012 26.39 374.782 27.36 373.742 27.86C372.722 28.34 371.872 28.36 371.192 27.92ZM372.272 26.24C372.272 26.38 372.482 26.38 372.902 26.24C373.342 26.08 373.812 25.8 374.312 25.4C374.992 24.82 375.672 24.18 376.352 23.48C377.052 22.78 377.612 22.13 378.032 21.53L378.692 20.45C378.492 19.99 378.272 19.68 378.032 19.52C377.812 19.34 377.622 19.25 377.462 19.25C377.202 19.25 376.812 19.49 376.292 19.97C375.792 20.45 375.252 21.09 374.672 21.89C374.092 22.69 373.542 23.57 373.022 24.53C372.822 24.93 372.642 25.32 372.482 25.7C372.342 26.06 372.272 26.24 372.272 26.24ZM391.248 28.94C391.108 29.02 390.918 28.99 390.678 28.85C390.458 28.71 390.238 28.5 390.018 28.22C389.878 27.98 389.778 27.72 389.718 27.44C389.678 27.16 389.658 26.77 389.658 26.27C389.678 25.87 389.658 25.61 389.598 25.49C389.558 25.37 389.448 25.39 389.268 25.55C389.088 25.69 388.778 25.98 388.338 26.42C387.838 26.92 387.358 27.31 386.898 27.59C386.458 27.87 386.098 28 385.818 27.98C385.678 27.98 385.518 27.91 385.338 27.77C385.178 27.61 385.028 27.42 384.888 27.2C384.748 26.96 384.628 26.72 384.528 26.48C384.408 26.04 384.388 25.48 384.468 24.8C384.568 24.1 384.728 23.37 384.948 22.61C385.168 21.85 385.418 21.13 385.698 20.45C385.998 19.77 386.298 19.22 386.598 18.8C386.918 18.38 387.198 18.17 387.438 18.17C387.598 18.17 387.738 18.25 387.858 18.41C387.998 18.57 388.138 18.82 388.278 19.16C388.358 19.3 388.388 19.42 388.368 19.52C388.368 19.62 388.288 19.74 388.128 19.88C387.948 20.12 387.738 20.48 387.498 20.96C387.278 21.44 387.058 21.96 386.838 22.52C386.638 23.08 386.458 23.62 386.298 24.14C386.138 24.66 386.028 25.09 385.968 25.43C385.908 25.75 385.918 25.91 385.998 25.91C386.278 25.91 386.608 25.8 386.988 25.58C387.388 25.34 387.768 25.05 388.128 24.71C388.548 24.29 388.918 23.83 389.238 23.33C389.578 22.83 389.918 22.3 390.258 21.74C390.518 21.34 390.788 20.9 391.068 20.42C391.368 19.94 391.558 19.6 391.638 19.4C391.918 18.88 392.128 18.53 392.268 18.35C392.408 18.15 392.578 18.02 392.778 17.96C392.878 17.96 392.968 17.96 393.048 17.96C393.148 17.96 393.198 17.96 393.198 17.96C393.318 17.98 393.458 18.07 393.618 18.23C393.778 18.31 393.868 18.39 393.888 18.47C393.908 18.53 393.918 18.61 393.918 18.71C393.838 18.91 393.708 19.21 393.528 19.61C393.368 19.99 393.248 20.27 393.168 20.45C392.788 21.31 392.408 22.16 392.028 23C391.668 23.82 391.408 24.66 391.248 25.52C391.208 25.8 391.198 26.13 391.218 26.51C391.258 26.87 391.318 27.13 391.398 27.29C391.458 27.41 391.528 27.55 391.608 27.71C391.708 27.85 391.818 27.97 391.938 28.07C392.118 28.19 392.148 28.32 392.028 28.46C391.928 28.6 391.788 28.72 391.608 28.82C391.428 28.9 391.308 28.94 391.248 28.94ZM390.858 16.49C390.238 16.57 389.718 16.39 389.298 15.95C388.878 15.51 388.558 14.86 388.338 14C388.298 13.84 388.278 13.7 388.278 13.58C388.298 13.44 388.338 13.32 388.398 13.22C388.438 13.14 388.518 13.08 388.638 13.04C388.758 12.98 388.858 12.97 388.938 13.01C389.218 13.11 389.418 13.24 389.538 13.4C389.678 13.54 389.768 13.72 389.808 13.94C389.848 14.04 389.868 14.14 389.868 14.24C389.888 14.34 389.898 14.38 389.898 14.36C389.998 14.68 390.128 14.9 390.288 15.02C390.448 15.14 390.688 15.13 391.008 14.99C391.348 14.85 391.678 14.69 391.998 14.51C392.338 14.33 392.638 14.11 392.898 13.85C393.118 13.63 393.328 13.43 393.528 13.25C393.748 13.07 393.958 12.88 394.158 12.68L394.188 12.65C394.268 12.59 394.368 12.57 394.488 12.59C394.608 12.61 394.678 12.64 394.698 12.68C394.838 12.82 394.908 12.96 394.908 13.1C394.908 13.24 394.908 13.39 394.908 13.55L394.878 13.61C394.918 13.73 394.818 13.96 394.578 14.3C394.358 14.64 394.088 14.93 393.768 15.17C393.488 15.39 393.188 15.59 392.868 15.77C392.548 15.95 392.218 16.12 391.878 16.28C391.738 16.36 391.588 16.41 391.428 16.43C391.288 16.43 391.098 16.45 390.858 16.49ZM397.548 27.53C397.328 27.39 397.128 27.21 396.948 26.99C396.768 26.75 396.678 26.45 396.678 26.09C396.678 25.89 396.718 25.55 396.798 25.07C396.878 24.59 396.988 24.05 397.128 23.45C397.268 22.85 397.408 22.29 397.548 21.77C397.748 21.41 397.918 21.05 398.058 20.69C398.198 20.33 398.268 20.11 398.268 20.03C398.308 19.79 398.358 19.51 398.418 19.19C398.498 18.87 398.578 18.58 398.658 18.32C398.738 18.06 398.798 17.91 398.838 17.87C398.938 17.77 399.058 17.71 399.198 17.69C399.338 17.65 399.478 17.67 399.618 17.75C399.778 17.81 399.898 17.94 399.978 18.14C400.198 18.38 400.308 18.67 400.308 19.01C400.308 19.33 400.198 19.81 399.978 20.45C399.798 20.85 399.618 21.32 399.438 21.86C399.258 22.4 399.098 22.9 398.958 23.36C398.838 23.8 398.768 24.1 398.748 24.26L398.148 24.44C398.488 24.12 398.808 23.79 399.108 23.45C399.408 23.09 399.628 22.81 399.768 22.61C400.108 22.15 400.398 21.77 400.638 21.47C400.898 21.15 401.228 20.77 401.628 20.33C402.028 19.87 402.418 19.59 402.798 19.49C403.198 19.37 403.508 19.31 403.728 19.31C404.168 19.39 404.518 19.62 404.778 20C405.058 20.36 405.238 20.9 405.318 21.62C405.318 21.9 405.288 22.23 405.228 22.61C405.188 22.99 405.168 23.18 405.168 23.18C405.168 23.18 405.328 22.97 405.648 22.55C405.988 22.13 406.438 21.67 406.998 21.17C407.378 20.89 407.748 20.73 408.108 20.69C408.468 20.63 408.788 20.75 409.068 21.05C409.588 21.33 409.928 21.76 410.088 22.34C410.248 22.9 410.288 23.62 410.208 24.5C410.148 25.02 410.138 25.41 410.178 25.67C410.218 25.91 410.278 26.15 410.358 26.39C410.518 26.47 410.548 26.64 410.448 26.9C410.348 27.14 410.228 27.26 410.088 27.26C409.888 27.26 409.658 27.22 409.398 27.14C409.158 27.06 408.938 26.93 408.738 26.75C408.558 26.55 408.468 26.28 408.468 25.94V24.08C408.468 23.64 408.448 23.28 408.408 23C408.388 22.72 408.338 22.55 408.258 22.49C408.038 22.37 407.718 22.5 407.298 22.88C406.878 23.26 406.428 23.77 405.948 24.41C405.468 25.05 405.018 25.71 404.598 26.39C404.218 27.01 403.978 27.37 403.878 27.47C403.798 27.55 403.648 27.52 403.428 27.38C402.988 27.24 402.708 27.05 402.588 26.81C402.488 26.55 402.478 26.26 402.558 25.94C402.658 25.6 402.778 25.14 402.918 24.56C403.078 23.98 403.228 23.42 403.368 22.88C403.508 22.32 403.598 21.92 403.638 21.68C403.558 21.52 403.418 21.47 403.218 21.53C403.038 21.57 402.848 21.66 402.648 21.8C402.408 21.96 402.118 22.26 401.778 22.7C401.438 23.14 401.088 23.65 400.728 24.23C400.488 24.61 400.238 24.99 399.978 25.37C399.718 25.73 399.478 26.05 399.258 26.33C399.038 26.61 398.848 26.82 398.688 26.96C398.408 27.4 398.218 27.64 398.118 27.68C398.018 27.72 397.828 27.67 397.548 27.53Z" fill="#565EF9"/>
<path d="M35.1448 174.917C52.6678 170.222 66.4486 162.886 81.9526 154.472C88.7174 150.802 92.6709 146.33 95.0367 140.339C99.201 129.794 85.2589 125.95 74.8094 124.014C56.194 120.565 29.5847 124.137 14.8552 137.19C7.06485 144.094 6.83822 151.746 7.52114 159.756C8.75664 174.248 21.149 177.595 36.8615 181.324" stroke="#565EF9" stroke-width="2"/>
<path d="M103 42C89.5365 48.7273 79.0838 58.5529 71.4956 66.8059C57.0614 82.5046 52.308 96.7254 51.2618 109.072C50.9435 112.828 49.4166 117.379 49.2963 120.952C49.2492 122.354 47.8736 118.281 47.5434 117.62C47.1617 116.856 44.5604 114.813 44.7256 115.143C45.6121 116.918 48.9706 117.313 49.8435 119.06C50.4993 120.373 50.2299 122.696 53.9703 119.588C56.5931 117.409 59.0053 115.098 60.9663 112.855" stroke="#565EF9" stroke-width="2" stroke-linecap="round"/>
</svg>
