<svg width="136" height="63" viewBox="0 0 136 63" fill="none" xmlns="http://www.w3.org/2000/svg">
<path d="M100.68 15.0101C85.5275 15.0101 70.6463 13.4032 55.5288 12.8278C43.4655 12.3686 31.2842 12.2467 19.5921 14.7254C13.8127 15.9506 1.57063 18.6893 1.03132 24.2611C0.451357 30.2529 8.05459 37.2503 13.1419 41.3873C24.6437 50.7405 39.8069 56.0193 57.1085 56.6633C77.1251 57.4084 96.3779 53.8979 109.302 42.4784C114.799 37.6221 121.455 30.5689 116.477 24.3085C108.023 13.6776 93.3601 9.88642 77.1831 9.88642C50.5203 9.88642 7.14613 16.9761 13.0761 41.9091C17.8384 61.9327 72.544 65.9135 92.9136 59.9842C107.797 55.6518 119.589 45.4463 130.298 37.2125C132.583 35.4561 135.57 33.6802 134.906 31.0451C132.099 19.9198 111.886 10.22 98.7056 6.37578C84.5292 2.24124 63.512 -1.38135 48.2888 1.58423C29.2748 5.28831 10.272 18.0925 8.5346 32.5632C7.4769 41.373 8.2817 47.7469 21.3033 50.8755" stroke="#565EF9" stroke-linecap="round"/>
</svg>
