<svg width="131" height="32" viewBox="0 0 131 32" fill="none" xmlns="http://www.w3.org/2000/svg">
<path d="M0.44 27L5.04 3.36H10.4L14.92 27H10.68L9.72 22.2H5.4L4.52 27H0.44ZM5.48 20.24H9.68L7.6 7.08L5.48 20.24ZM16.9116 31.72V29.8H42.6716V31.72H16.9116ZM55.5388 31.8C54.0721 31.7467 52.7254 31.2933 51.4988 30.44C50.2988 29.6133 49.2588 28.5067 48.3788 27.12C47.5254 25.7333 46.8588 24.1733 46.3788 22.44C45.8988 20.68 45.6588 18.8667 45.6588 17C45.6588 14.9733 45.9254 13 46.4588 11.08C47.0188 9.16 47.7654 7.41333 48.6988 5.84C49.6588 4.26667 50.7521 2.98667 51.9788 2C53.2321 1.01333 54.5654 0.479998 55.9787 0.399999V2.56C54.9121 2.85333 53.9654 3.45333 53.1388 4.36C52.3121 5.24 51.6054 6.33333 51.0188 7.64C50.4321 8.94667 49.9788 10.3867 49.6588 11.96C49.3654 13.5333 49.2188 15.1467 49.2188 16.8C49.2188 18.4 49.3521 19.9467 49.6188 21.44C49.8854 22.9067 50.2854 24.2533 50.8188 25.48C51.3521 26.68 52.0188 27.64 52.8188 28.36C53.6188 29.1067 54.5254 29.5333 55.5388 29.64V31.8ZM67.5744 27V20.44C67.281 20.7067 66.7877 20.9733 66.0944 21.24C65.401 21.5067 64.6544 21.64 63.8544 21.64C62.5477 21.64 61.561 21.4267 60.8944 21C60.2277 20.5467 59.7744 19.92 59.5344 19.12C59.321 18.32 59.2144 17.3867 59.2144 16.32V3.36H62.9744V16.32C62.9744 17.2 63.121 17.88 63.4144 18.36C63.7344 18.8133 64.3344 19.04 65.2144 19.04C65.9077 19.04 66.4277 18.9467 66.7744 18.76C67.1477 18.5467 67.4144 18.3867 67.5744 18.28V3.36H71.3744V27H67.5744ZM75.3594 27V3.36H85.9994V6.08H79.3594V13.24H84.8394V16.24H79.3594V24.36H85.9994V27H75.3594ZM88.3959 31.8V29.64C89.4626 29.3467 90.4093 28.7467 91.2359 27.84C92.0626 26.96 92.7693 25.88 93.3559 24.6C93.9426 23.2933 94.3826 21.8533 94.6759 20.28C94.9959 18.68 95.1559 17.04 95.1559 15.36C95.1559 13.7867 95.0226 12.2533 94.7559 10.76C94.4893 9.26667 94.0893 7.92 93.5559 6.72C93.0226 5.52 92.3559 4.54666 91.5559 3.8C90.7559 3.05333 89.8493 2.62666 88.8359 2.52V0.399999C90.3026 0.453332 91.6359 0.906665 92.8359 1.76C94.0626 2.58667 95.1026 3.69333 95.9559 5.08C96.8359 6.44 97.5159 8 97.9959 9.76C98.4759 11.4933 98.7159 13.3067 98.7159 15.2C98.7159 17.1733 98.4359 19.1333 97.8759 21.08C97.3426 23.0267 96.5959 24.7867 95.6359 26.36C94.7026 27.9333 93.6093 29.2133 92.3559 30.2C91.1293 31.1867 89.8093 31.72 88.3959 31.8ZM107.596 27.28C106.076 27.28 104.823 27.04 103.836 26.56C102.876 26.08 102.17 25.4 101.716 24.52C101.263 23.64 101.036 22.6133 101.036 21.44V18.84H104.876V20.52C104.876 21.8 105.09 22.7867 105.516 23.48C105.943 24.1467 106.623 24.4933 107.556 24.52C108.41 24.52 109.063 24.2133 109.516 23.6C109.97 22.9867 110.196 22.1733 110.196 21.16V18.88C110.196 17.8933 109.863 17.1733 109.196 16.72C108.53 16.24 107.596 15.9867 106.396 15.96H104.356V13.72H106.436C106.996 13.72 107.516 13.64 107.996 13.48C108.476 13.32 108.876 13.08 109.196 12.76C109.516 12.4667 109.743 12.1467 109.876 11.8C110.01 11.4533 110.076 11.08 110.076 10.68V9.12C110.076 8.26667 109.876 7.53333 109.476 6.92C109.103 6.30667 108.463 6 107.556 6C106.596 6 105.93 6.34667 105.556 7.04C105.183 7.70667 104.996 8.61333 104.996 9.76V10.88H101.116V8.84C101.116 7.02667 101.636 5.64 102.676 4.68C103.743 3.72 105.383 3.24 107.596 3.24C109.89 3.24 111.543 3.69333 112.556 4.6C113.57 5.48 114.076 6.78667 114.076 8.52V10.12C114.076 11.48 113.73 12.5733 113.036 13.4C112.37 14.2267 111.423 14.7467 110.196 14.96C111.476 15.0933 112.463 15.5867 113.156 16.44C113.85 17.2933 114.196 18.4 114.196 19.76V21.44C114.196 22.6933 113.97 23.76 113.516 24.64C113.09 25.52 112.396 26.1867 111.436 26.64C110.476 27.0667 109.196 27.28 107.596 27.28ZM115.713 27L120.313 3.36H125.673L130.193 27H125.953L124.993 22.2H120.673L119.793 27H115.713ZM120.753 20.24H124.953L122.873 7.08L120.753 20.24Z" fill="#3D3D3D"/>
</svg>
